<svg width="24" height="24" viewBox="0 0 24 24" fill="none" xmlns="http://www.w3.org/2000/svg">
<path d="M11.9997 8.75033C11.9012 8.74986 11.8035 8.76908 11.7125 8.80686C11.6215 8.84464 11.5389 8.90022 11.4697 8.97033L6.46969 13.9703C6.36997 14.1162 6.32496 14.2927 6.34262 14.4685C6.36028 14.6443 6.43946 14.8083 6.5662 14.9314C6.69295 15.0546 6.85911 15.129 7.03538 15.1416C7.21165 15.1542 7.38672 15.1042 7.52969 15.0003L11.9997 10.5603L16.4697 15.0003C16.6106 15.0917 16.7782 15.1331 16.9455 15.118C17.1128 15.1028 17.2702 15.0318 17.3924 14.9166C17.5146 14.8013 17.5945 14.6483 17.6194 14.4822C17.6443 14.3161 17.6127 14.1464 17.5297 14.0003L12.5297 9.00033C12.463 8.92477 12.3816 8.86362 12.2905 8.82063C12.1994 8.77764 12.1004 8.75372 11.9997 8.75033Z" fill="#A0A0A0"/>
</svg>
