<svg width="17" height="16" viewBox="0 0 17 16" fill="none" xmlns="http://www.w3.org/2000/svg">
<path d="M13.9233 4.66667H3.25667C2.52029 4.66667 1.92334 5.26363 1.92334 6.00001V12.6667C1.92334 13.4031 2.52029 14 3.25667 14H13.9233C14.6597 14 15.2567 13.4031 15.2567 12.6667V6.00001C15.2567 5.26363 14.6597 4.66667 13.9233 4.66667Z" stroke="#A6A6A6" stroke-width="1.33333" stroke-linecap="round" stroke-linejoin="round"/>
<path d="M11.2567 14V3.33333C11.2567 2.97971 11.1162 2.64057 10.8661 2.39052C10.6161 2.14048 10.277 2 9.92334 2H7.25667C6.90305 2 6.56391 2.14048 6.31386 2.39052C6.06382 2.64057 5.92334 2.97971 5.92334 3.33333V14" stroke="#A6A6A6" stroke-width="1.33333" stroke-linecap="round" stroke-linejoin="round"/>
</svg>
