<svg width="17" height="17" viewBox="0 0 17 17" fill="none" xmlns="http://www.w3.org/2000/svg">
<g clip-path="url(#clip0_1_1098)">
<g clip-path="url(#clip1_1_1098)">
<path d="M14.33 7.46667C14.33 12.1333 8.33002 16.1333 8.33002 16.1333C8.33002 16.1333 2.33002 12.1333 2.33002 7.46667C2.33002 5.87538 2.96216 4.34925 4.08738 3.22403C5.21259 2.09882 6.73872 1.46667 8.33002 1.46667C9.92132 1.46667 11.4474 2.09882 12.5727 3.22403C13.6979 4.34925 14.33 5.87538 14.33 7.46667Z" stroke="#A6A6A6" stroke-width="1.33333" stroke-linecap="round" stroke-linejoin="round"/>
<path d="M8.33002 9.46667C9.43459 9.46667 10.33 8.57124 10.33 7.46667C10.33 6.36211 9.43459 5.46667 8.33002 5.46667C7.22545 5.46667 6.33002 6.36211 6.33002 7.46667C6.33002 8.57124 7.22545 9.46667 8.33002 9.46667Z" stroke="#A6A6A6" stroke-width="1.33333" stroke-linecap="round" stroke-linejoin="round"/>
</g>
</g>
<defs>
<clipPath id="clip0_1_1098">
<rect width="16" height="16" fill="white" transform="translate(0.330017 0.800049)"/>
</clipPath>
<clipPath id="clip1_1_1098">
<rect width="16" height="16" fill="white" transform="translate(0.330017 0.800049)"/>
</clipPath>
</defs>
</svg>
