<svg xmlns="http://www.w3.org/2000/svg" xmlns:xlink="http://www.w3.org/1999/xlink" viewBox="0 0 476 476"><defs><style>.cls-1{fill:none;clip-rule:evenodd;}.cls-2{fill:#fff;}.cls-3{clip-path:url(#clip-path);}.cls-4{fill:#3e82f1;}.cls-5{clip-path:url(#clip-path-2);}.cls-6{fill:#32a753;}.cls-7{clip-path:url(#clip-path-3);}.cls-8{fill:#f9bb00;}.cls-9{clip-path:url(#clip-path-4);}.cls-10{fill:#e74133;}</style><clipPath id="clip-path"><path class="cls-1" d="M413.77,242.05a205,205,0,0,0-3.23-36.42H242.88v68.86h95.8a81.84,81.84,0,0,1-35.52,53.73v44.66h57.53c33.66-31,53.08-76.62,53.08-130.83Zm0,0"/></clipPath><clipPath id="clip-path-2"><path class="cls-1" d="M242.88,416c48.06,0,88.36-15.94,117.81-43.13l-57.53-44.66c-15.94,10.68-36.33,17-60.28,17-46.36,0-85.61-31.31-99.6-73.39H83.8v46.12A177.94,177.94,0,0,0,242.88,416Zm0,0"/></clipPath><clipPath id="clip-path-3"><path class="cls-1" d="M143.28,271.82a105.1,105.1,0,0,1,0-67.64V158.06H83.8a178.26,178.26,0,0,0,0,159.88l59.48-46.12Zm0,0"/></clipPath><clipPath id="clip-path-4"><path class="cls-1" d="M242.88,130.79c26.14,0,49.6,9,68.05,26.62L362,106.35C331.16,77.63,290.86,60,242.88,60A177.94,177.94,0,0,0,83.8,158.06l59.48,46.12c14-42.08,53.24-73.39,99.6-73.39Zm0,0"/></clipPath></defs><title>google-favicon</title><g id="Layer_2" data-name="Layer 2"><circle class="cls-2" cx="238" cy="238" r="238"/></g><g id="Layer_1" data-name="Layer 1"><g class="cls-3"><rect id="_Path_" data-name="&lt;Path&gt;" class="cls-4" x="143.99" y="106.74" width="368.68" height="365.04"/></g><g class="cls-5"><rect id="_Path_2" data-name="&lt;Path&gt;" class="cls-6" x="-15.09" y="172.93" width="474.68" height="341.98"/></g><g class="cls-7"><rect id="_Path_3" data-name="&lt;Path&gt;" class="cls-8" x="-34.03" y="59.16" width="276.2" height="357.68"/></g><g class="cls-9"><rect id="_Path_4" data-name="&lt;Path&gt;" class="cls-10" x="-15.09" y="-38.91" width="475.97" height="341.98"/></g></g></svg>