<svg width="166" height="160" viewBox="0 0 166 160" fill="none" xmlns="http://www.w3.org/2000/svg">
<g clip-path="url(#clip0_1_532)">
<mask id="mask0_1_532" style="mask-type:luminance" maskUnits="userSpaceOnUse" x="0" y="0" width="160" height="160">
<path d="M160 0H0V160H160V0Z" fill="white"/>
</mask>
<g mask="url(#mask0_1_532)">
<path d="M144.143 135.402C123.338 175.638 77.7532 193.481 42.3276 175.254C6.90208 157.028 -4.94972 109.635 15.8559 69.3984C36.6616 29.162 82.246 11.3194 117.672 29.5457C153.097 47.772 164.949 95.1654 144.143 135.402Z" fill="#FAFAFA"/>
<path d="M0 160.3H160" stroke="#DEDEDE"/>
<path d="M91.0959 46.2274L91.1481 46.7247L91.6454 46.6724L109.547 44.7909C113.221 44.4047 116.524 47.0793 116.91 50.7537L118.039 61.4945C118.425 65.1692 115.751 68.472 112.077 68.8582L83.9316 71.8163L83.7957 70.5234C83.6628 69.2593 82.532 68.3435 81.2678 68.4764L70.527 69.6053C69.2629 69.7381 68.3471 70.869 68.48 72.1331L68.6159 73.4261L40.471 76.3842C36.7963 76.7704 33.4935 74.0959 33.1073 70.4212L31.9784 59.6804C31.5922 56.006 34.2667 52.7031 37.9414 52.3168L55.8426 50.4353L56.3399 50.383L56.2876 49.8857L55.9113 46.3055C55.5251 42.6309 58.1998 39.3281 61.8743 38.9418L83.3559 36.684C87.0305 36.2978 90.3334 38.9726 90.7196 42.647L91.0959 46.2274ZM84.4848 47.425L84.9821 47.3727L84.9298 46.8755L84.5535 43.2951L84.5012 42.7978L84.004 42.8501L62.5224 45.1079L62.0251 45.1602L62.0774 45.6574L62.4537 49.2378L62.5059 49.7351L63.0032 49.6828L84.4848 47.425Z" fill="#F0F0F0" stroke="#D6D6D6"/>
<path d="M116.983 71.3775C117.34 71.042 117.862 70.9351 118.326 71.1074C118.788 71.2799 119.113 71.6985 119.165 72.1898L121.803 97.2971C122.19 100.972 119.515 104.275 115.84 104.661L44.2351 112.187C40.5605 112.573 37.2576 109.898 36.8714 106.224L34.2325 81.1165C34.1809 80.625 34.4116 80.1478 34.8279 79.8831L34.8292 79.8823C35.2458 79.6155 35.7747 79.6108 36.1955 79.8673L36.1974 79.8684C37.6606 80.7518 39.305 81.1319 40.9529 80.9587L69.0976 78.0006L69.6098 82.8737C69.7427 84.1379 70.8736 85.0536 72.1377 84.9208L82.8785 83.7919C84.1426 83.659 85.0584 82.5281 84.9255 81.264L84.4134 76.3908L112.558 73.4327C114.206 73.2595 115.735 72.5459 116.983 71.3775Z" fill="#F0F0F0" stroke="#D6D6D6"/>
<g opacity="0.1">
<path d="M78.4004 174.4C113.747 174.4 142.4 169.027 142.4 162.4C142.4 155.773 113.747 150.4 78.4004 150.4C43.0542 150.4 14.4004 155.773 14.4004 162.4C14.4004 169.027 43.0542 174.4 78.4004 174.4Z" fill="#3E3E3E"/>
</g>
<path d="M78.8754 131.921C89.7002 131.921 98.4754 123.146 98.4754 112.321C98.4754 101.496 89.7002 92.721 78.8754 92.721C68.0506 92.721 59.2754 101.496 59.2754 112.321C59.2754 123.146 68.0506 131.921 78.8754 131.921Z" fill="white"/>
<path d="M105.003 131.449L104.918 131.333C103.159 129.297 100.998 127.805 98.9085 126.365C98.0554 125.776 96.5395 124.827 95.467 124.064C97.9559 120.549 99.2892 116.347 99.2816 112.041C99.2816 100.531 89.9507 91.2 78.4402 91.2C66.9296 91.2 57.5996 100.531 57.5996 112.041C57.5996 123.55 66.9305 132.882 78.4402 132.882C82.7414 132.888 86.9384 131.558 90.4504 129.075C91.2145 130.146 92.1623 131.659 92.752 132.513C94.1967 134.606 95.6901 136.762 97.7245 138.519L97.8398 138.604C98.4885 139 99.2356 139.207 99.996 139.2C101.145 139.196 102.253 138.767 103.104 137.994L104.362 136.739L104.392 136.708C105.732 135.242 105.988 133.03 105.003 131.449ZM78.4402 127.445C74.8758 127.445 71.4217 126.209 68.6662 123.948C65.9108 121.688 64.0245 118.541 63.3289 115.045C62.6332 111.55 63.1713 107.921 64.8513 104.777C66.5313 101.634 69.2493 99.1699 72.5422 97.8057C75.8351 96.4416 79.4992 96.2614 82.9101 97.296C86.3209 98.3305 89.2676 100.516 91.2479 103.479C93.2281 106.443 94.1195 110.001 93.7702 113.549C93.4209 117.096 91.8524 120.412 89.332 122.932C87.905 124.367 86.2076 125.505 84.338 126.279C82.4685 127.054 80.4638 127.45 78.4402 127.445Z" fill="#ED1B2F"/>
<path d="M78.4394 113.963C81.8178 113.963 84.5566 111.224 84.5566 107.846C84.5566 104.468 81.8178 101.729 78.4394 101.729C75.061 101.729 72.3223 104.468 72.3223 107.846C72.3223 111.224 75.061 113.963 78.4394 113.963Z" fill="#ED1B2F"/>
<path d="M88.5172 119.007C88.4254 118.149 88.0415 117.349 87.4297 116.74C86.8155 116.125 86.0101 115.736 85.146 115.64C83.8813 115.505 80.7396 115.432 78.7831 115.432C76.8265 115.432 72.9763 115.505 71.7107 115.64C70.8468 115.737 70.0415 116.124 69.427 116.739C68.8155 117.348 68.4319 118.148 68.3404 119.006V119.032C68.3104 119.323 68.2926 119.575 68.2812 119.791C68.6276 120.244 69.0035 120.673 69.4062 121.077C71.8029 123.473 75.0533 124.819 78.4424 124.819C81.8315 124.819 85.0818 123.473 87.4785 121.077C87.875 120.68 88.2454 120.257 88.5875 119.812C88.5735 119.592 88.5528 119.333 88.5219 119.033L88.5172 119.007Z" fill="#ED1B2F"/>
<path fill-rule="evenodd" clip-rule="evenodd" d="M42.6 95.987C42.6 95.987 52.2273 89.5688 52.2273 82.0809C52.2273 79.5276 51.213 77.0789 49.4075 75.2734C47.602 73.4679 45.1533 72.4536 42.6 72.4536C40.0466 72.4536 37.5979 73.4679 35.7924 75.2734C33.987 77.0789 32.9727 79.5276 32.9727 82.0809C32.9727 89.5688 42.6 95.987 42.6 95.987ZM46.8831 82.0808C46.8831 84.4439 44.9674 86.3596 42.6043 86.3596C40.2412 86.3596 38.3255 84.4439 38.3255 82.0808C38.3255 79.7177 40.2412 77.802 42.6043 77.802C44.9674 77.802 46.8831 79.7177 46.8831 82.0808Z" fill="#121212"/>
<path d="M80.7932 53.4326C74.4507 53.4326 69.3086 58.5747 69.3086 64.9172C69.3086 71.2598 74.4507 76.4019 80.7932 76.4019C87.1358 76.4019 92.2778 71.2598 92.2778 64.9172C92.2778 58.5747 87.1358 53.4326 80.7932 53.4326ZM84.0921 69.4449C83.5911 70.0546 82.9389 70.4658 82.178 70.6737C81.8472 70.7635 81.6959 70.9384 81.7148 71.2834C81.729 71.6237 81.7148 71.9593 81.7101 72.2995C81.7101 72.602 81.5541 72.7627 81.2564 72.7722C81.0626 72.7769 80.8688 72.7816 80.6751 72.7816C80.5049 72.7816 80.3348 72.7816 80.1646 72.7769C79.8433 72.7722 79.692 72.5878 79.692 72.2759C79.6873 72.0302 79.6873 71.7797 79.6873 71.5339C79.6826 70.9857 79.6637 70.9668 79.1391 70.8817C78.4679 70.773 77.8063 70.6217 77.1919 70.324C76.7098 70.0877 76.6578 69.9695 76.7949 69.4591C76.8988 69.081 77.0028 68.7029 77.121 68.3295C77.206 68.0554 77.2864 67.9325 77.4329 67.9325C77.518 67.9325 77.6267 67.9751 77.7732 68.0507C78.4538 68.4052 79.1769 68.6037 79.9378 68.6982C80.0654 68.7124 80.193 68.7218 80.3206 68.7218C80.6751 68.7218 81.0201 68.6557 81.3556 68.5091C82.2016 68.1405 82.334 67.1622 81.6203 66.5761C81.3793 66.3776 81.1004 66.2311 80.8121 66.1035C80.0701 65.7774 79.2997 65.5316 78.6003 65.111C77.466 64.4304 76.7476 63.4994 76.8327 62.1193C76.9272 60.5597 77.811 59.5861 79.243 59.0662C79.8338 58.8536 79.8385 58.8583 79.8385 58.2439C79.8385 58.0359 79.8338 57.828 79.8433 57.6153C79.8574 57.1521 79.9331 57.0718 80.3962 57.0576C80.4482 57.0576 80.5049 57.0576 80.5569 57.0576C80.6467 57.0576 80.7365 57.0576 80.8263 57.0576C80.8641 57.0576 80.9019 57.0576 80.935 57.0576C81.8141 57.0576 81.8141 57.0954 81.8188 58.0454C81.8235 58.7448 81.8235 58.7448 82.5183 58.8536C83.0523 58.9386 83.558 59.0946 84.0496 59.312C84.319 59.4301 84.4229 59.6192 84.3379 59.9075C84.215 60.3328 84.0968 60.7629 83.9645 61.1836C83.8794 61.4388 83.7991 61.5569 83.6478 61.5569C83.5628 61.5569 83.4588 61.5238 83.3265 61.4577C82.6459 61.1268 81.9322 60.9662 81.1855 60.9662C81.091 60.9662 80.9917 60.9709 80.8972 60.9756C80.6751 60.9898 80.4577 61.0181 80.2497 61.1079C79.5124 61.4293 79.3943 62.2422 80.0229 62.7432C80.3395 62.9984 80.7034 63.178 81.0768 63.334C81.729 63.6034 82.3812 63.8633 83.0003 64.2036C84.9475 65.2906 85.4769 67.7624 84.0921 69.4449Z" fill="#121212"/>
<path d="M125.01 89.552V93.1714C125.01 94.486 124.236 95.6592 123.038 96.2083C121.582 96.874 119.377 97.5978 116.69 97.5978C114.002 97.5978 111.797 96.874 110.333 96.2083C109.143 95.6592 108.369 94.486 108.369 93.1714V89.552L114.285 92.2561C115.042 92.6056 115.858 92.7803 116.69 92.7803C117.522 92.7803 118.337 92.6056 119.094 92.2561L125.01 89.552Z" fill="#121212"/>
<path d="M128.338 88.0292V93.4374C128.338 93.8951 127.963 94.2695 127.506 94.2695C127.048 94.2695 126.674 93.8951 126.674 93.4374V88.7947L128.338 88.0292Z" fill="#121212"/>
<path d="M114.972 90.7456C115.517 90.9943 116.102 91.1191 116.688 91.1191C117.273 91.1191 117.858 90.9952 118.403 90.7456L129.029 85.8881C129.628 85.6144 130 85.0344 130 84.3746C130 83.7148 129.628 83.134 129.029 82.8603L118.403 78.0037C117.313 77.5053 116.064 77.5053 114.973 78.0037L104.346 82.8595C103.747 83.134 103.375 83.714 103.375 84.3738C103.375 85.0336 103.747 85.6135 104.346 85.8881L114.972 90.7456Z" fill="#121212"/>
</g>
</g>
<defs>
<clipPath id="clip0_1_532">
<rect width="160" height="160" fill="white"/>
</clipPath>
</defs>
</svg>
