<svg width="160" height="160" viewBox="0 0 160 160" fill="none" xmlns="http://www.w3.org/2000/svg">
<path d="M155.4 153.867C154.787 154.728 153.977 155.432 153.038 155.918C152.099 156.405 151.058 156.662 150 156.667H10.0001C8.94243 156.662 7.9011 156.405 6.96214 155.918C6.02318 155.432 5.21354 154.728 4.6001 153.867C30.9334 95.3 25.4668 107.467 33.3334 90H126.667C135.133 108.833 128.867 94.9333 155.4 153.867Z" fill="#D6D6D6"/>
<path d="M33.3334 46.6665V89.9998C24.8667 108.833 31.1334 94.9332 4.60002 153.867C3.764 152.752 3.31879 151.393 3.33335 150V103.333L33.3334 46.6665Z" fill="#E7E7E7"/>
<path d="M156.667 103.333V150C156.681 151.393 156.236 152.752 155.4 153.867C129.066 95.2998 134.533 107.467 126.667 89.9998V46.6665L156.667 103.333Z" fill="#E7E7E7"/>
<path d="M156.667 103.333V150C156.667 151.768 155.964 153.464 154.714 154.714C153.464 155.964 151.768 156.667 150 156.667H10.0002C8.23205 156.667 6.53636 155.964 5.28612 154.714C4.03588 153.464 3.3335 151.768 3.3335 150V103.333H60.3002C61.104 103.324 61.8841 103.606 62.4967 104.127C63.1092 104.647 63.513 105.372 63.6335 106.167C64.1475 109.182 65.4816 111.999 67.4898 114.307C69.4979 116.615 72.1026 118.325 75.0184 119.251C77.9342 120.177 81.0487 120.283 84.0205 119.557C86.9924 118.83 89.7069 117.3 91.8668 115.133C94.2903 112.687 95.9072 109.558 96.5002 106.167C96.6207 105.372 97.0244 104.647 97.637 104.127C98.2495 103.606 99.0296 103.324 99.8335 103.333H156.667Z" fill="#F0F0F0"/>
<path d="M33.3335 46.6665H126.667V89.9998H33.3335V46.6665Z" fill="#F0F0F0"/>
<path d="M110 33.3332C110.008 27.6219 108.385 22.0271 105.322 17.2063C102.26 12.3856 97.8845 8.53919 92.7112 6.11926C87.5379 3.69933 81.7813 2.80641 76.118 3.54545C70.4547 4.28449 65.1201 6.62477 60.741 10.2912C56.362 13.9577 53.1205 18.798 51.3976 24.2433C49.6747 29.6885 49.5419 35.5124 51.0149 41.0305C52.4879 46.5486 55.5055 51.5316 59.713 55.3938C63.9204 59.256 69.1429 61.8369 74.7666 62.8332L78.5 70.3666C78.645 70.6384 78.8611 70.8658 79.1253 71.0243C79.3895 71.1828 79.6919 71.2666 80 71.2666C80.3081 71.2666 80.6104 71.1828 80.8746 71.0243C81.1388 70.8658 81.355 70.6384 81.5 70.3666L85.2333 62.8332C92.1674 61.6048 98.4483 57.9762 102.976 52.5829C107.504 47.1896 109.991 40.3753 110 33.3332Z" fill="#D6D6D6"/>
<path d="M84.6998 33.3333L92.3665 25.7C92.9941 25.0723 93.3468 24.221 93.3468 23.3333C93.3468 22.4456 92.9941 21.5943 92.3665 20.9666C91.7388 20.339 90.8875 19.9863 89.9998 19.9863C89.1121 19.9863 88.2608 20.339 87.6331 20.9666L79.9998 28.6333L72.3665 20.9666C72.0557 20.6558 71.6867 20.4093 71.2806 20.2411C70.8746 20.0729 70.4393 19.9863 69.9998 19.9863C69.1121 19.9863 68.2608 20.339 67.6331 20.9666C67.0055 21.5943 66.6528 22.4456 66.6528 23.3333C66.6528 24.221 67.0055 25.0723 67.6331 25.7L75.2998 33.3333L67.6331 40.9666C67.3223 41.2774 67.0758 41.6464 66.9076 42.0525C66.7394 42.4585 66.6528 42.8938 66.6528 43.3333C66.6528 44.221 67.0055 45.0723 67.6331 45.7C68.2608 46.3276 69.1121 46.6803 69.9998 46.6803C70.4393 46.6803 70.8746 46.5937 71.2806 46.4255C71.6867 46.2573 72.0557 46.0108 72.3665 45.7L79.9998 38.0333L87.6331 45.7C88.2608 46.3276 89.1121 46.6803 89.9998 46.6803C90.8875 46.6803 91.7388 46.3276 92.3665 45.7C92.9941 45.0723 93.3468 44.221 93.3468 43.3333C93.3468 42.4456 92.9941 41.5943 92.3665 40.9666L84.6998 33.3333Z" fill="white"/>
<path d="M36.6668 126.667H16.6668C14.8259 126.667 13.3335 128.159 13.3335 130V143.333C13.3335 145.174 14.8259 146.667 16.6668 146.667H36.6668C38.5078 146.667 40.0002 145.174 40.0002 143.333V130C40.0002 128.159 38.5078 126.667 36.6668 126.667Z" fill="#D6D6D6"/>
<path d="M30 140H23.3333C22.4493 140 21.6014 139.649 20.9763 139.024C20.3512 138.398 20 137.551 20 136.667C20 135.783 20.3512 134.935 20.9763 134.31C21.6014 133.684 22.4493 133.333 23.3333 133.333H30C30.8841 133.333 31.7319 133.684 32.357 134.31C32.9821 134.935 33.3333 135.783 33.3333 136.667C33.3333 137.551 32.9821 138.398 32.357 139.024C31.7319 139.649 30.8841 140 30 140Z" fill="white"/>
<path d="M56.6665 146.666H49.9998C49.1158 146.666 48.2679 146.315 47.6428 145.69C47.0177 145.065 46.6665 144.217 46.6665 143.333C46.6665 142.449 47.0177 141.601 47.6428 140.976C48.2679 140.351 49.1158 140 49.9998 140H56.6665C57.5506 140 58.3984 140.351 59.0235 140.976C59.6486 141.601 59.9998 142.449 59.9998 143.333C59.9998 144.217 59.6486 145.065 59.0235 145.69C58.3984 146.315 57.5506 146.666 56.6665 146.666Z" fill="white"/>
<path d="M63.3332 133.333H49.9998C49.1158 133.333 48.2679 132.982 47.6428 132.357C47.0177 131.732 46.6665 130.884 46.6665 130C46.6665 129.116 47.0177 128.268 47.6428 127.643C48.2679 127.018 49.1158 126.667 49.9998 126.667H63.3332C64.2172 126.667 65.0651 127.018 65.6902 127.643C66.3153 128.268 66.6665 129.116 66.6665 130C66.6665 130.884 66.3153 131.732 65.6902 132.357C65.0651 132.982 64.2172 133.333 63.3332 133.333Z" fill="white"/>
</svg>
