<svg width="21" height="20" viewBox="0 0 21 20" fill="none" xmlns="http://www.w3.org/2000/svg">
<path d="M15.38 6.66669C15.38 5.3406 14.8532 4.06883 13.9155 3.13115C12.9779 2.19347 11.7061 1.66669 10.38 1.66669C9.05392 1.66669 7.78215 2.19347 6.84447 3.13115C5.90679 4.06883 5.38 5.3406 5.38 6.66669C5.38 12.5 2.88 14.1667 2.88 14.1667H17.88C17.88 14.1667 15.38 12.5 15.38 6.66669Z" stroke="#ED1B2F" stroke-width="1.66667" stroke-linecap="round" stroke-linejoin="round"/>
<path d="M11.8217 17.5C11.6751 17.7526 11.4649 17.9622 11.2118 18.1079C10.9588 18.2537 10.672 18.3304 10.38 18.3304C10.088 18.3304 9.80115 18.2537 9.54814 18.1079C9.29512 17.9622 9.08483 17.7526 8.93832 17.5" stroke="#ED1B2F" stroke-width="1.66667" stroke-linecap="round" stroke-linejoin="round"/>
</svg>
