<svg width="25" height="24" viewBox="0 0 25 24" fill="none" xmlns="http://www.w3.org/2000/svg">
<path d="M12.3344 6V18" stroke="#0ab305" stroke-width="2" stroke-linecap="round" stroke-linejoin="round"/>
<path d="M15.2587 7.90332H10.8695C10.3263 7.90332 9.80529 8.11912 9.42116 8.50325C9.03703 8.88738 8.82123 9.40836 8.82123 9.9516C8.82123 10.4948 9.03703 11.0158 9.42116 11.4C9.80529 11.7841 10.3263 11.9999 10.8695 11.9999H13.7956C14.3388 11.9999 14.8598 12.2157 15.244 12.5998C15.6281 12.9839 15.8439 13.5049 15.8439 14.0482C15.8439 14.5914 15.6281 15.1124 15.244 15.4965C14.8598 15.8806 14.3388 16.0964 13.7956 16.0964H8.82123" stroke="#0ab305" stroke-width="2" stroke-linecap="round" stroke-linejoin="round"/>
<path d="M12.3302 21.3002C17.4665 21.3002 21.6302 17.1364 21.6302 12.0002C21.6302 6.86395 17.4665 2.7002 12.3302 2.7002C7.19397 2.7002 3.03022 6.86395 3.03022 12.0002C3.03022 17.1364 7.19397 21.3002 12.3302 21.3002Z" stroke="#0ab305" stroke-width="2"/>
</svg>
