<svg width="1920" height="896" viewBox="0 0 1920 896" fill="none" xmlns="http://www.w3.org/2000/svg">
<g clip-path="url(#clip0_642_3584)">
<path opacity="0.05" d="M1920 218.5C1657.1 196.7 1549.1 277.1 1426.7 368.3C1388.4 396.8 1348.7 426.4 1302.3 454.3C1184.6 525 1008.2 598.5 843.4 609.4C770.2 614.2 699.4 606.7 637 581C696.7 603 763.4 609.4 832.2 604.8C997.3 594 1174 520.3 1291.9 449.5C1338.3 421.6 1378.1 392 1416.4 363.4C1540.3 271.1 1649.3 189.8 1920 215V213.5C1648.8 188.3 1539.5 269.7 1415.4 362.2C1377.1 390.7 1337.4 420.3 1291 448.2C1173.3 519 996.9 592.4 832.1 603.3C758.9 608.1 688.1 600.6 625.7 574.9C685.4 596.9 752.1 603.3 820.9 598.7C986 587.8 1162.7 514.2 1280.6 443.4C1327 415.5 1366.8 385.9 1405.1 357.3C1530.7 263.7 1641.1 181.5 1920.1 210V208.5C1640.6 180 1530 262.3 1404.2 356.1C1365.9 384.6 1326.2 414.2 1279.8 442.1C1162 512.8 985.6 586.3 820.9 597.2C747.7 602 676.9 594.5 614.5 568.8C674.2 590.8 740.9 597.2 809.7 592.6C974.8 581.7 1151.5 508.1 1269.4 437.3C1315.8 409.4 1355.6 379.8 1393.9 351.2C1521.2 256.3 1632.8 173.2 1920.2 205.1V203.6C1632.3 171.7 1520.5 255 1392.9 350C1354.6 378.5 1314.9 408.1 1268.5 436C1150.8 506.7 974.4 580.2 809.6 591.1C736.4 595.9 665.6 588.3 603.2 562.7C662.9 584.7 729.6 591.1 798.4 586.5C963.5 575.7 1140.2 502 1258.1 431.2C1304.5 403.3 1344.3 373.7 1382.6 345.1C1511.6 249 1624.4 164.9 1920.3 200.3V198.8C1624 163.4 1510.9 247.6 1381.7 343.9C1343.4 372.4 1303.7 402 1257.3 429.9C1139.2 500.7 962.8 574.2 798.1 585C724.9 589.8 654.1 582.3 591.7 556.6C651.4 578.6 718.1 585 786.9 580.4C952 569.5 1128.7 495.9 1246.6 425.1C1293 397.2 1332.8 367.6 1371.1 339C1501.7 241.7 1615.7 156.7 1919.9 195.6C1920 195.6 1920 195.6 1920.1 195.6V194.1C1615.3 155.1 1501 240.3 1370.1 337.8C1331.8 366.3 1292.1 395.9 1245.7 423.8C1127.9 494.5 951.5 568 786.7 578.9C713.5 583.7 642.7 576.1 580.3 550.5C640 572.5 706.7 578.9 775.5 574.3C940.6 563.4 1117.3 489.8 1235.2 419C1281.6 391.1 1321.4 361.5 1359.7 332.9C1490.3 235.6 1604.3 150.6 1908.5 189.5C1912.4 190 1916.2 190.4 1920.1 190.8V189.3C1916.3 188.9 1912.6 188.5 1908.8 188C1604 149 1489.7 234.2 1358.8 331.7C1320.5 360.2 1280.8 389.8 1234.4 417.7C1116.7 488.4 940.3 561.9 775.5 572.8C704.3 577.5 635.2 570.4 574 546.4L573.4 546C632 566.7 697.1 572.7 764.2 568.3C929.3 557.5 1106 483.8 1223.9 413C1270.3 385.1 1310.1 355.5 1348.4 326.9C1479 229.6 1593 144.6 1897.2 183.5C1904.9 184.5 1912.5 185.3 1920.1 185.8V184.3C1912.6 183.7 1905.1 183 1897.4 182C1592.6 143 1478.3 228.2 1347.4 325.7C1309.1 354.2 1269.4 383.8 1223 411.7C1105.2 482.5 928.8 556 764.1 566.8C695.3 571.3 628.5 564.9 568.8 542.8L567.7 542C624.8 561.1 687.9 566.6 752.9 562.3C918 551.4 1094.7 477.8 1212.6 407C1259 379.1 1298.8 349.5 1337.1 320.9C1467.7 223.6 1581.7 138.6 1885.9 177.5C1897.5 179 1908.9 180 1920.1 180.5V179C1908.9 178.4 1897.6 177.4 1886.1 176C1581.3 137 1467 222.2 1336.1 319.7C1297.8 348.2 1258.1 377.8 1211.7 405.7C1093.9 476.4 917.5 549.9 752.8 560.8C686.4 565.2 621.8 559.3 563.8 539L562.3 537.8C617.8 555.4 678.9 560.3 741.6 556.2C906.7 545.4 1083.4 471.7 1201.3 400.9C1247.7 373 1287.5 343.4 1325.8 314.8C1456.3 217.5 1570.4 132.5 1874.6 171.4C1890.1 173.4 1905.3 174.5 1920.2 174.9V173.4C1905.4 173 1890.3 171.9 1874.9 170C1570.1 131 1455.8 216.2 1324.9 313.7C1286.6 342.2 1246.9 371.8 1200.5 399.7C1082.8 470.4 906.4 543.9 741.6 554.8C677.6 559 615.3 553.7 558.9 535.2C558.3 534.7 557.7 534.2 557.1 533.7C611 549.8 669.9 554.2 730.3 550.2C895.4 539.4 1072.1 465.7 1190 394.9C1236.4 367 1276.2 337.4 1314.5 308.8C1445.1 211.5 1559.1 126.5 1863.3 165.4C1882.8 167.9 1901.7 169 1920.2 169V167.5C1901.8 167.5 1882.9 166.4 1863.5 163.9C1558.7 124.9 1444.4 210.1 1313.5 307.6C1275.2 336.1 1235.5 365.7 1189.1 393.6C1071.2 464.3 894.8 537.8 730 548.6C668.4 552.6 608.4 547.9 553.8 531C553.1 530.4 552.4 529.8 551.8 529.3C604 543.9 660.7 547.9 718.9 544.1C884 533.2 1060.7 459.6 1178.6 388.8C1225 360.9 1264.8 331.3 1303.1 302.7C1433.7 205.4 1547.7 120.4 1851.9 159.3C1875.4 162.3 1898.1 163.4 1920.1 162.7V161.2C1898.1 161.9 1875.5 160.8 1852.1 157.8C1547.3 118.8 1433 204 1302.1 301.5C1263.8 330 1224.1 359.6 1177.7 387.5C1060 458.2 883.6 531.7 718.8 542.6C659.6 546.5 602 542.3 549.1 527C548.3 526.3 547.6 525.7 546.8 525C597.2 538.2 651.7 541.7 707.5 538C872.6 527.2 1049.3 453.5 1167.2 382.7C1213.6 354.8 1253.4 325.2 1291.7 296.6C1422.3 199.3 1536.3 114.3 1840.5 153.2C1868 156.7 1894.5 157.6 1920.1 156.1V154.6C1894.6 156.1 1868.2 155.2 1840.7 151.7C1535.9 112.7 1421.6 197.9 1290.7 295.4C1252.4 323.9 1212.7 353.5 1166.3 381.4C1048.5 452.1 872.2 525.6 707.4 536.5C650.7 540.2 595.4 536.5 544.3 522.7C543.5 522 542.7 521.2 541.9 520.5C590.5 532.4 642.7 535.4 696.2 531.9C861.3 521 1038 447.4 1155.9 376.6C1202.3 348.7 1242.1 319.1 1280.4 290.5C1411 193.2 1525 108.2 1829.2 147.1C1860.8 151.1 1891.1 151.7 1920.1 149.2V147.7C1891.2 150.1 1860.9 149.6 1829.4 145.6C1524.6 106.6 1410.3 191.8 1279.4 289.3C1241.1 317.8 1201.4 347.4 1155 375.3C1037.2 446 860.8 519.5 696 530.4C641.8 534 588.8 530.7 539.6 518.4C538.8 517.6 537.9 516.8 537.1 516C583.8 526.6 633.8 529.2 684.8 525.9C849.9 515 1026.6 441.4 1144.5 370.6C1190.9 342.7 1230.7 313.1 1269 284.5C1399.6 187.2 1513.6 102.2 1817.8 141.1C1853.5 145.7 1887.6 145.7 1920 142.1V140.6C1887.6 144.2 1853.6 144.2 1818 139.6C1513.2 100.6 1398.9 185.8 1268 283.3C1229.7 311.8 1190 341.4 1143.6 369.3C1025.9 440 849.5 513.4 684.7 524.3C632.9 527.7 582.3 524.9 535 513.9C534.1 513.1 533.3 512.2 532.4 511.3C577.2 520.7 624.8 522.9 673.4 519.7C838.5 508.8 1015.2 435.2 1133.1 364.4C1179.5 336.5 1219.3 306.9 1257.6 278.3C1388.2 181 1502.2 96 1806.4 134.9C1846.3 140 1884.2 139.5 1920 134.5V133C1884.3 138 1846.5 138.6 1806.6 133.5C1501.8 94.5 1387.5 179.7 1256.6 277.2C1218.3 305.7 1178.6 335.3 1132.2 363.2C1014.4 433.9 838.1 507.4 673.3 518.3C624 521.5 575.8 519.2 530.4 509.4C529.5 508.5 528.7 507.6 527.8 506.7C570.6 514.9 615.9 516.8 662.1 513.8C827.2 502.9 1003.9 429.3 1121.8 358.5C1168.2 330.6 1208 301 1246.3 272.4C1376.9 175 1490.9 90 1795.1 128.9C1839.3 134.5 1880.9 133.3 1920 126.7V125.1C1881 131.7 1839.4 133 1795.3 127.3C1490.5 88.3 1376.2 173.5 1245.3 271C1207 299.5 1167.3 329.1 1120.9 357C1003.2 427.8 826.8 501.3 662 512.1C615.2 515.2 569.3 513.2 526 504.6L523.2 501.7C564 508.9 607 510.4 650.7 507.5C815.8 496.7 992.5 423 1110.4 352.2C1156.8 324.3 1196.6 294.7 1234.9 266.1C1365.5 168.8 1479.5 83.8 1783.7 122.7C1832.2 128.9 1877.6 126.8 1919.9 118.4V117C1877.6 125.4 1832.3 127.5 1783.9 121.3C1479.1 82.3 1364.8 167.5 1233.9 265C1195.6 293.5 1155.9 323.1 1109.5 351C991.9 421.7 815.5 495.2 650.7 506C606.3 508.9 562.8 507.3 521.5 499.8C520.5 498.8 519.5 497.7 518.5 496.7C557.4 502.9 598 504.1 639.4 501.4C804.5 490.6 981.2 416.9 1099.1 346.1C1145.5 318.2 1185.3 288.6 1223.6 260C1354.2 162.7 1468.2 77.7001 1772.4 116.6C1825.2 123.3 1874.4 120.3 1920 110V108.4C1874.5 118.8 1825.4 121.9 1772.7 115.1C1467.9 76.1001 1353.6 161.3 1222.7 258.8C1184.4 287.3 1144.7 316.9 1098.3 344.8C980.6 415.6 804.2 489.1 639.4 500C597.4 502.8 556.1 501.4 516.8 495C515.7 493.9 514.7 492.8 513.6 491.7C550.5 497.1 589 498 628.2 495.5C793.2 484.7 969.9 411.1 1087.8 340.2C1134.2 312.3 1174 282.7 1212.3 254.1C1342.9 156.8 1456.9 71.8 1761.1 110.7C1818.3 118 1871.3 113.8 1920.1 101.3V99.7C1871.4 112.3 1818.5 116.5 1761.3 109.2C1456.5 70.2 1342.2 155.4 1211.3 252.9C1173 281.4 1133.3 311 1086.9 338.9C969.2 409.6 792.8 483.1 628 493.9C588.2 496.5 549.1 495.5 511.7 489.9C510.5 488.7 509.4 487.6 508.3 486.5C543.4 491.1 579.8 491.8 616.8 489.4C781.9 478.6 958.6 404.9 1076.5 334.1C1122.9 306.2 1162.7 276.6 1201 248C1331.6 150.7 1445.6 65.7001 1749.8 104.6C1811.5 112.5 1868.2 107 1920.1 92.1001V90.5C1868.3 105.4 1811.6 111 1750 103.1C1445.2 64.1001 1330.9 149.3 1200 246.8C1161.7 275.3 1122 304.9 1075.6 332.8C957.8 403.5 781.4 477 616.6 487.8C579 490.3 541.9 489.5 506.4 484.6C505.2 483.4 503.9 482.2 502.7 481C536 485 570.4 485.5 605.4 483.2C770.5 472.4 947.1 398.7 1065.1 327.9C1111.5 300 1151.3 270.4 1189.6 241.8C1320.2 144.5 1434.2 59.5001 1738.4 98.4001C1804.6 106.9 1865.2 99.9 1920.1 82.5V81C1865.3 98.5 1804.8 105.5 1738.7 97C1433.9 58 1319.6 143.2 1188.7 240.7C1150.4 269.2 1110.7 298.8 1064.3 326.7C946.5 397.4 770.1 470.9 605.4 481.8C569.8 484.1 534.8 483.5 501 479.4C499.7 478.2 498.4 476.9 497.1 475.7C528.6 479.1 561.2 479.4 594.2 477.3C759.3 466.4 936 392.8 1053.9 322C1100.3 294.1 1140.1 264.5 1178.4 235.9C1309 138.6 1423 53.6 1727.2 92.5C1798 101.6 1862.3 93.0001 1920.2 72.8001V71.2C1862.4 91.4 1798.2 100 1727.5 91C1422.7 52 1308.4 137.2 1177.5 234.7C1139.2 263.2 1099.5 292.8 1053.1 320.7C935.2 391.4 758.8 464.8 594 475.7C560.3 477.9 527.2 477.5 495.1 473.9C493.7 472.6 492.3 471.3 490.9 470.1C520.8 473 551.6 473.2 582.7 471.1C747.8 460.2 924.5 386.6 1042.4 315.8C1088.8 287.9 1128.6 258.3 1166.9 229.7C1297.5 132.4 1411.5 47.4 1715.7 86.3C1791.2 95.9 1859.2 85.6001 1920 62.5V60.8C1859.3 84 1791.3 94.4 1715.9 84.8C1411.1 45.8 1296.8 131 1165.9 228.5C1127.6 257 1087.9 286.6 1041.5 314.5C923.7 385.2 747.3 458.7 582.6 469.6C550.8 471.7 519.4 471.4 488.9 468.4C487.4 467.1 485.9 465.8 484.5 464.5C512.8 466.9 541.9 467 571.4 465.1C736.5 454.2 913.2 380.6 1031.1 309.8C1077.5 281.9 1117.3 252.3 1155.6 223.7C1286.2 126.4 1400.2 41.4 1704.4 80.3C1784.6 90.6001 1856.5 78.2001 1920.1 52V50.3C1856.6 76.6 1784.8 89.0001 1704.6 78.8001C1399.8 39.8001 1285.5 125 1154.6 222.5C1116.3 251 1076.6 280.6 1030.2 308.5C912.5 379.2 736 452.7 571.3 463.5C541.2 465.5 511.5 465.4 482.5 462.8C480.9 461.4 479.3 460.1 477.8 458.8C504.7 460.9 532.2 460.8 560.1 459C725.2 448.2 901.9 374.5 1019.8 303.7C1066.2 275.8 1106 246.2 1144.3 217.6C1274.9 120.3 1388.9 35.3 1693.1 74.2C1778.1 85.1 1853.8 70.5 1920.1 41V39.3C1853.8 68.9 1778.3 83.5 1693.3 72.6C1388.5 33.6 1274.2 118.8 1143.3 216.3C1105 244.8 1065.3 274.4 1018.9 302.3C901.2 373 724.8 446.5 560 457.4C531.5 459.3 503.3 459.3 475.8 457C474.1 455.6 472.4 454.3 470.7 452.9C496.2 454.6 522.4 454.5 548.8 452.8C713.9 441.9 890.6 368.3 1008.5 297.5C1054.9 269.6 1094.7 240 1133 211.4C1263.6 114.1 1377.6 29.1 1681.8 68C1771.7 79.5 1851.1 62.5001 1920.1 29.6V28C1851.1 61.1 1771.8 78.1 1682 66.6C1377.2 27.6 1262.9 112.8 1132 210.3C1093.7 238.8 1054 268.4 1007.6 296.3C889.9 367 713.5 440.5 548.7 451.4C521.6 453.2 494.8 453.3 468.6 451.4C466.8 450 464.9 448.6 463.1 447.3C487.5 448.8 512.3 448.6 537.5 446.9C702.4 436 879.1 362.4 997 291.5C1043.4 263.6 1083.2 234 1121.5 205.4C1252.1 108.1 1366.1 23.1 1670.3 62C1765.2 74.1001 1848.3 54.6 1920 18V16.3C1848.4 53 1765.3 72.7001 1670.5 60.6C1365.7 21.6 1251.4 106.8 1120.5 204.3C1082.2 232.8 1042.5 262.4 996.1 290.3C878.4 361 702 434.5 537.2 445.3C511.3 447 485.7 447.1 460.7 445.5C449.4 437.3 438.6 430.7 428.5 425.8C424.6 423.6 420.9 421.5 417.2 419.7C413.3 417.5 409.6 415.4 405.9 413.6C402 411.4 398.3 409.3 394.6 407.5C390.7 405.3 387 403.2 383.3 401.4C379.4 399.2 375.7 397.1 372 395.3C368.1 393.1 364.4 391 360.7 389.2C356.8 387 353.1 384.9 349.4 383.1C345.5 380.9 341.8 378.8 338.1 377C334.2 374.8 330.5 372.7 326.8 370.9C322.9 368.7 319.2 366.6 315.5 364.8C311.6 362.6 307.9 360.5 304.2 358.7C300.3 356.5 296.6 354.4 292.9 352.6C289 350.4 285.3 348.3 281.6 346.5C277.7 344.3 274 342.2 270.3 340.4C266.4 338.2 262.7 336.1 259 334.3C255.1 332.1 251.4 330 247.7 328.2C243.8 326 240.1 323.9 236.4 322.1C232.5 319.9 228.8 317.8 225.1 316C221.2 313.8 217.5 311.7 213.8 309.9C209.9 307.7 206.2 305.6 202.5 303.8C198.6 301.6 194.9 299.5 191.2 297.7C187.3 295.5 183.6 293.4 179.9 291.6C176 289.4 172.3 287.3 168.6 285.5C164.7 283.3 161 281.2 157.3 279.4C153.4 277.2 149.7 275.1 146 273.3C142.1 271.1 138.4 269 134.7 267.2C85.5 238.7 48.8 244.9 21.6 275.9C13 285 6.19999 295.5 -6.10203e-06 307.7V311.2C6.49999 297.9 13.7 286.5 21.7 277.4C45.2 250.7 76 242.8 116.1 260.5C81 248.9 53.4 257.8 31.8 282.4C19.3 296.6 8.79999 316.2 -0.100006 339.9V344.5C8.99999 319.1 19.9 298.3 33 283.4C56.5 256.7 87.3 248.8 127.4 266.5C92.4 255 64.8 264 43.2 288.6C24.8 309.5 10.7 341.8 -6.10203e-06 382.4V388.7C10.8 345.6 25.3 311.4 44.4 289.6C67.9 262.9 98.6 255 138.7 272.7C103.6 261.1 76.1 270.1 54.4 294.7C28.7 324 11.5 375.6 -6.10203e-06 440.9V450.4C11.4 381 29 326.2 55.8 295.7C78.2 270.2 107.3 261.9 144.7 276.6L146.3 277.7C113.1 268 86.7 277.2 65.9 300.9C29.6 342 10.2 427.4 -6.10203e-06 532.8V550.5C9.69999 437.3 29.1 345 67.1 301.8C88.5 277.5 115.8 268.8 150.7 280.7C151.5 281.3 152.4 281.9 153.3 282.5C122.1 274.8 97.2 284.2 77.2 306.9C36.1 353.6 16.7 456.9 7.69999 581.9C6.49999 598.7 3.79999 613.9 -6.10203e-06 627.8V633.5C4.79999 618.1 7.99999 601 9.29999 582C18.2 457.3 37.6 354.2 78.4 307.8C98.7 284.7 124.3 275.7 156.7 285C157.8 285.8 158.9 286.7 160 287.5C130.9 281.8 107.4 291.3 88.5 312.9C47.4 359.7 28 463 19.1 588C17 617.9 10.2 643 -6.10203e-06 664V667.7C11.1 645.9 18.4 619.6 20.7 588.1C29.6 463.4 49 360.3 89.8 313.9C109 292.1 133 282.8 163 289.8C164.3 290.8 165.5 291.8 166.8 292.8C139.8 288.9 117.8 298.6 99.9 318.9C58.8 365.6 39.3 469 30.4 594C27.6 633.8 16.6 665.2 -6.10203e-06 689.8V692.7C17.5 667.6 29.1 635.4 32 594.1C40.9 469.4 60.3 366.3 101.1 319.9C119.2 299.3 141.6 289.9 169.3 294.8C170.7 295.9 172.1 297.1 173.5 298.3C148.6 296.1 128.1 305.8 111.2 325C70.1 371.7 50.6 475.1 41.7 600.1C38.3 648.5 22.9 684.4 -6.10203e-06 710.7V713.2C23.7 686.5 39.8 649.9 43.4 600.2C52.3 475.5 71.7 372.4 112.5 326C129.5 306.7 150.3 297.2 175.7 300.1C177.2 301.4 178.7 302.7 180.3 304.1C157.5 303.4 138.5 313.1 122.7 331.1C81.5 377.9 62 481.2 53.1 606.2C49.1 662.2 29 701.4 -6.10203e-06 728.5V730.8C29.9 703.4 50.6 663.5 54.7 606.3C63.6 481.6 83 378.5 123.8 332.1C139.7 314 158.9 304.6 182.1 305.8C183.7 307.2 185.3 308.7 187 310.2C166.2 310.9 148.7 320.4 133.9 337.2C92.8 384 73.4 487.3 64.4 612.3C59.9 675.3 35.1 717.1 -6.10203e-06 744.3V746.4C35.9 719 61.4 676.6 66 612.5C74.9 487.8 94.2 384.7 135.1 338.3C149.9 321.5 167.6 312.1 188.6 311.9C190.3 313.5 192 315.1 193.7 316.7C174.9 318.5 158.9 327.8 145.2 343.4C104.2 390 84.7 493.4 75.8 618.4C70.8 688 41 731.7 -6.10203e-06 758.5V760.4C41.9 733.5 72.3 689.2 77.4 618.5C86.3 493.8 105.7 390.7 146.5 344.3C160.2 328.7 176.3 319.6 195.4 318.1C197.2 319.8 199 321.5 200.7 323.3C183.8 326.1 169.2 335.1 156.6 349.4C115.5 396.1 96 499.5 87.1 624.5C81.7 700.3 46.8 745.4 -6.10203e-06 771.4V773.2C47.6 747.1 83.2 701.5 88.7 624.6C97.6 499.9 116.9 396.8 157.8 350.4C170.4 336.1 185 327.2 202.1 324.7C203.9 326.5 205.8 328.4 207.6 330.2C192.5 333.7 179.4 342.4 167.9 355.4C126.8 402.1 107.3 505.5 98.4 630.5C92.6 712.4 52.4 758.4 -0.100006 783.2V785C53.1 760.1 94 713.6 100 630.6C108.9 505.9 128.3 402.8 169.1 356.4C180.6 343.4 193.7 334.8 208.9 331.5C210.8 333.4 212.7 335.4 214.6 337.4C201.3 341.5 189.6 349.7 179.2 361.5C138.1 408.2 118.6 511.6 109.7 636.6C103.5 724.3 57.9 770.9 -6.10203e-06 794.3V796C58.7 772.5 105.1 725.5 111.4 636.7C120.3 512 139.7 408.9 180.5 362.5C190.8 350.7 202.6 342.7 215.9 338.8C217.1 340 218.2 341.2 219.4 342.5C220.2 343.4 221 344.2 221.8 345.1C210.2 349.5 199.9 357.2 190.6 367.7C149.5 414.4 130.1 517.8 121.1 642.8C114.5 736 63.2 782.8 -6.10203e-06 804.6V806.3C64 784.4 116 737.2 122.7 642.8C131.6 518.1 151 415 191.8 368.6C201 358.1 211.4 350.5 223 346.3C225.1 348.5 227.2 350.6 229.4 352.7C219.3 357.3 210.2 364.4 202 373.7C160.9 420.4 141.5 523.8 132.5 648.8C125.4 747.6 68.3 794.3 -6.10203e-06 814.3V815.9C69.1 795.8 126.9 748.8 134.1 648.8C143 524.1 162.4 421 203.2 374.6C211.4 365.2 220.5 358.2 230.6 353.8C232.9 356 235.2 358.1 237.5 360.2C228.7 364.8 220.6 371.3 213.3 379.7C172.2 426.4 152.7 529.8 143.8 654.8C136.4 759.1 73.3 805.3 -6.10203e-06 823.5V825.1C74 806.9 137.9 760.4 145.4 655C154.3 530.3 173.7 427.2 214.5 380.8C221.9 372.4 229.9 365.9 238.7 361.5C241.1 363.7 243.6 365.8 246.1 367.9C238.3 372.4 231.2 378.4 224.6 385.9C183.5 432.6 164 536 155.1 661C147.3 770.5 78 816 -6.10203e-06 832.1V833.7C78.7 817.5 148.8 771.8 156.8 661C165.7 536.3 185.1 433.2 225.9 386.8C232.5 379.3 239.7 373.3 247.5 368.9C250.1 371.1 252.7 373.2 255.3 375.2C248.4 379.5 241.9 385.1 236 391.9C194.9 438.6 175.4 542 166.5 667C158.3 781.9 82.5 826.3 -6.10203e-06 840.3V841.9C83.2 827.8 159.8 783.1 168.1 667.1C177 542.4 196.4 439.3 237.2 392.9C243.2 386.1 249.7 380.5 256.6 376.2C259.3 378.3 262.1 380.3 264.9 382.3C258.6 386.4 252.8 391.7 247.3 397.9C206.2 444.6 186.8 548 177.8 673C169.3 793.2 86.7 836.3 -6.10203e-06 848.1V849.7C87.5 837.8 170.8 794.5 179.4 673.2C188.3 548.5 207.6 445.4 248.5 399C254 392.7 259.9 387.5 266.3 383.4C269.2 385.4 272.1 387.4 275 389.3C269.2 393.3 263.8 398.2 258.6 404.1C217.5 450.8 198 554.2 189.1 679.2C180.2 804.5 90.8 845.9 -6.10203e-06 855.6V857.2C91.5 847.5 181.7 805.8 190.8 679.3C199.7 554.6 219.1 451.5 259.9 405.1C265.1 399.2 270.6 394.3 276.4 390.3C279.4 392.3 282.4 394.2 285.5 396C280 399.9 274.8 404.6 270 410.2C228.9 456.9 209.4 560.3 200.5 685.3C191.2 815.8 94.5 855.3 -6.10203e-06 862.7V864.2C95.2 856.8 192.7 817 202.1 685.3C211 560.6 230.4 457.5 271.2 411.1C276.1 405.5 281.4 400.7 287 396.8C290.1 398.7 293.3 400.5 296.5 402.2C291.1 406.1 286.1 410.7 281.3 416.1C240.2 462.8 220.8 566.2 211.8 691.2C202.1 827.1 98 864.4 -6.10203e-06 869.5V871C98.7 865.9 203.7 828.3 213.5 691.3C222.4 566.6 241.8 463.5 282.6 417.1C287.5 411.6 292.6 406.9 298.1 403C300.5 404.3 302.9 405.6 305.3 406.8C306.2 407.3 307 407.8 307.9 408.2C302.5 412.1 297.5 416.7 292.7 422.1C251.6 468.8 232.2 572.2 223.2 697.2C213.1 838.4 101.1 873.2 -6.10203e-06 876V877.5C101.8 874.7 214.6 839.6 224.8 697.4C233.7 572.7 253.1 469.6 293.9 423.2C298.8 417.7 303.9 413 309.4 409.1C311.8 410.4 314.2 411.7 316.6 412.9C317.5 413.4 318.3 413.9 319.2 414.3C313.8 418.2 308.8 422.8 304 428.2C262.9 474.9 243.4 578.3 234.5 703.3C224.1 849.8 103.9 881.8 -6.10203e-06 882.3V883.8C104.6 883.3 225.6 851.1 236.1 703.5C245 578.8 264.4 475.7 305.2 429.3C310.1 423.8 315.2 419.1 320.7 415.2C323.1 416.5 325.5 417.8 327.9 419C328.8 419.5 329.6 420 330.5 420.4C325.1 424.3 320.1 428.9 315.3 434.3C274.2 481 254.7 584.4 245.8 709.4C235 861.2 106.3 890 -6.10203e-06 888.3V889.8C107 891.5 236.5 862.5 247.5 709.6C256.4 584.9 275.8 481.8 316.6 435.4C321.5 429.9 326.6 425.2 332.1 421.3C334.5 422.6 336.9 423.9 339.3 425.1C340.2 425.6 341 426.1 341.9 426.5C336.5 430.4 331.5 435 326.7 440.4C285.6 487.1 266.2 590.5 257.2 715.5C246 872.7 108.2 898 -6.10203e-06 894.1V895.6C108.9 899.6 247.5 874.1 258.8 715.7C267.7 591 287.1 487.9 327.9 441.5C332.8 436 337.9 431.3 343.4 427.4C345.8 428.7 348.2 430 350.6 431.2C354.3 433.3 358.1 435.3 361.9 437.3C365.6 439.4 369.4 441.4 373.2 443.4C376.9 445.5 380.7 447.5 384.5 449.5C388.2 451.6 392 453.6 395.8 455.6C399.5 457.7 403.3 459.7 407.1 461.7C410.8 463.8 414.6 465.8 418.4 467.8C422.1 469.9 425.9 471.9 429.7 473.9C433.4 476 437.2 478 441 480C444.7 482.1 448.5 484.1 452.3 486.1C456 488.2 459.8 490.2 463.6 492.2C467.3 494.3 471.1 496.3 474.9 498.3C478.6 500.4 482.4 502.4 486.2 504.4C489.9 506.5 493.7 508.5 497.5 510.5C501.2 512.6 505 514.6 508.8 516.6C512.5 518.7 516.3 520.7 520.1 522.7C523.8 524.8 527.6 526.8 531.4 528.8C535.1 530.9 538.9 532.9 542.7 534.9C546.4 537 550.2 539 554 541C557.7 543.1 561.5 545.1 565.3 547.1C569 549.2 572.8 551.2 576.6 553.2C580.3 555.3 584.1 557.3 587.9 559.3C591.6 561.4 595.4 563.4 599.2 565.4C670 605.1 754.6 617.2 842.6 611.4C1007.7 600.5 1184.3 526.9 1302.3 456.1C1348.7 428.2 1388.5 398.6 1426.8 370C1549 279 1656.7 198.7 1919.1 220.6V218.5H1920ZM157.4 283.6L156.4 282.8L157.6 283.6H157.4ZM538.7 519.7C539.4 520.4 540.1 521.1 540.9 521.7C539.8 521.4 538.7 521.1 537.6 520.8C536.8 520.1 536.1 519.5 535.3 518.8C536.5 519.1 537.6 519.4 538.7 519.7ZM534.1 515.3C534.9 516.1 535.6 516.8 536.4 517.6C535.2 517.3 534 517 532.8 516.7C532 516 531.2 515.2 530.4 514.5C531.7 514.7 532.9 515 534.1 515.3ZM529.6 510.7C530.4 511.5 531.2 512.3 532 513.2C530.7 512.9 529.4 512.6 528.1 512.2C527.3 511.4 526.4 510.6 525.6 509.8C527 510.2 528.3 510.5 529.6 510.7ZM512.7 506.7C513.8 507 514.9 507.3 516.1 507.6C516.8 508.3 517.5 509 518.3 509.6C517.2 509.3 516.1 509 515 508.7C514.2 508 513.4 507.4 512.7 506.7ZM507.8 502.3C509 502.6 510.2 502.9 511.4 503.1C512.2 503.9 512.9 504.6 513.7 505.4C512.5 505.1 511.3 504.8 510.1 504.5C509.4 503.7 508.6 503 507.8 502.3ZM485.1 490.1C486.3 490.4 487.5 490.7 488.7 491C489.5 491.8 490.2 492.5 491 493.3C489.8 493 488.6 492.7 487.4 492.4C486.7 491.6 485.9 490.9 485.1 490.1ZM478.6 488.4C479.7 488.7 480.9 489 482 489.3C482.7 490 483.4 490.7 484.2 491.3C483.1 491 482 490.7 480.9 490.4C480.1 489.8 479.4 489.1 478.6 488.4ZM473.8 484C475 484.3 476.2 484.6 477.4 484.9C478.2 485.7 478.9 486.4 479.7 487.2C478.5 486.9 477.3 486.6 476.1 486.3C475.3 485.5 474.5 484.8 473.8 484ZM198.3 312.3C199.8 313.6 201.4 314.9 202.9 316.3C202.1 316.3 201.4 316.3 200.6 316.3C199.1 314.9 197.5 313.5 196 312.1C196.7 312.2 197.5 312.3 198.3 312.3ZM194 310.4C192.6 309.1 191.2 307.9 189.8 306.7C190.5 306.8 191.2 306.9 191.9 307.1C193.3 308.3 194.7 309.4 196.1 310.6C195.4 310.4 194.7 310.4 194 310.4ZM373 407.5C372.2 407.5 371.5 407.5 370.7 407.5C369.2 406.1 367.6 404.7 366.1 403.3C366.9 403.4 367.7 403.5 368.4 403.5C369.9 404.8 371.5 406.1 373 407.5ZM418.3 440.9C417.1 440.7 415.8 440.5 414.6 440.3C405.7 431.2 397.1 422.9 388.8 415.4C389.6 415.5 390.4 415.6 391.1 415.6C399.8 423.1 408.9 431.5 418.3 440.9ZM507.8 497.2C506.9 496.3 506.1 495.4 505.2 494.5C506.6 494.8 508 495 509.3 495.3C510.2 496.2 511.1 497.2 512 498.2C510.6 497.8 509.2 497.5 507.8 497.2ZM513.8 500L514.2 500.4C514.9 501.2 515.6 501.9 516.4 502.7C515 502.4 513.7 502.1 512.3 501.8C511.4 501 510.6 500.1 509.7 499.2C511.1 499.5 512.5 499.7 513.8 500ZM503.3 492.5L500.5 489.6C501.8 489.8 503.1 490.1 504.5 490.3C505.5 491.3 506.5 492.3 507.4 493.3C506.1 493.1 504.7 492.8 503.3 492.5ZM498.4 493.1C499.8 493.4 501.1 493.7 502.5 493.9L502.9 494.3C503.6 495.1 504.3 495.8 505.1 496.6C503.7 496.3 502.4 496 501 495.7C500.1 494.8 499.2 494 498.4 493.1ZM493.8 488.4C495.2 488.7 496.6 488.9 498 489.2C498.9 490.1 499.8 491.1 500.7 492C499.3 491.7 497.9 491.4 496.5 491.1C495.5 490.2 494.6 489.3 493.8 488.4ZM475.7 480.9C477.1 481.2 478.4 481.5 479.8 481.7L480.2 482.1C480.9 482.9 481.6 483.6 482.4 484.4C481 484.1 479.7 483.8 478.3 483.5C477.4 482.7 476.5 481.8 475.7 480.9ZM471.1 476.2C472.5 476.5 473.9 476.7 475.3 477C476.2 477.9 477.1 478.9 478 479.8C476.6 479.5 475.2 479.2 473.8 478.9C472.8 478 472 477.1 471.1 476.2ZM459.8 470.1C461.2 470.4 462.6 470.6 463.9 470.9C464.8 471.8 465.7 472.8 466.6 473.7C465.2 473.4 463.8 473.1 462.4 472.8C461.5 472 460.6 471.1 459.8 470.1ZM453 468.8C454.4 469.1 455.7 469.4 457.1 469.6L457.5 470C458.2 470.8 458.9 471.5 459.7 472.3C458.3 472 457 471.7 455.6 471.4C454.7 470.5 453.9 469.6 453 468.8ZM448.4 464.1C449.8 464.4 451.2 464.6 452.6 464.9C453.5 465.8 454.4 466.8 455.3 467.7C453.9 467.4 452.5 467.1 451.1 466.8C450.2 465.9 449.3 465 448.4 464.1ZM222.7 330.1C224.4 331.7 226.1 333.3 227.8 334.9C227 335 226.1 335.1 225.3 335.2C223.6 333.5 221.9 331.8 220.1 330.2C221 330.1 221.8 330.1 222.7 330.1ZM218.6 328.6C217 327 215.3 325.5 213.7 324C214.5 324 215.3 324 216.2 324.1C217.8 325.5 219.4 327 221.1 328.5C220.2 328.5 219.4 328.5 218.6 328.6ZM295.5 366.6C297.1 368 298.7 369.5 300.3 371C299.5 371 298.7 371.1 297.9 371.1C296.3 369.5 294.6 368 293 366.5C293.9 366.5 294.7 366.6 295.5 366.6ZM306.9 372.7C308.5 374.1 310.1 375.6 311.7 377.1C310.9 377.1 310.1 377.2 309.3 377.2C307.7 375.6 306 374.1 304.4 372.6C305.2 372.6 306 372.6 306.9 372.7ZM363.6 403.1C365.2 404.5 366.8 406 368.4 407.5C367.6 407.5 366.8 407.6 366 407.6C364.4 406 362.7 404.5 361.1 403C361.9 403 362.7 403 363.6 403.1ZM374.9 409.1C376.5 410.5 378.1 412 379.7 413.5C378.9 413.5 378.1 413.6 377.3 413.6C375.7 412 374 410.5 372.4 409C373.3 409.1 374.1 409.1 374.9 409.1ZM375.2 413.8C374.4 413.9 373.5 414 372.7 414.1C371 412.4 369.3 410.7 367.5 409.1C368.3 409.1 369.2 409 370.1 409C371.8 410.6 373.5 412.2 375.2 413.8ZM363.9 407.8C363.1 407.9 362.2 408 361.4 408.1C359.7 406.4 358 404.7 356.3 403.1C357.1 403.1 358 403 358.9 403C360.5 404.5 362.2 406.1 363.9 407.8ZM354.1 403.2C355.9 404.9 357.6 406.6 359.4 408.4C358.5 408.5 357.7 408.7 356.8 408.9C355 407.1 353.2 405.3 351.4 403.5C352.4 403.3 353.2 403.2 354.1 403.2ZM354.7 401.5C353.1 399.9 351.4 398.4 349.8 396.9C350.6 396.9 351.4 396.9 352.3 397C353.9 398.4 355.5 399.9 357.1 401.4C356.3 401.4 355.4 401.5 354.7 401.5ZM352.5 401.7C351.7 401.8 350.8 401.9 350 402C348.3 400.3 346.6 398.6 344.9 397C345.7 397 346.6 396.9 347.5 396.9C349.1 398.4 350.8 400 352.5 401.7ZM348.1 402.3C347.2 402.4 346.4 402.6 345.5 402.8C343.7 401 341.9 399.2 340.1 397.4C341 397.3 341.8 397.2 342.7 397.2C344.5 398.8 346.3 400.5 348.1 402.3ZM345.7 395.3C344.9 395.3 344.1 395.4 343.3 395.4C341.7 393.8 340 392.3 338.4 390.8C339.2 390.8 340 390.8 340.9 390.9C342.5 392.4 344.1 393.8 345.7 395.3ZM341.2 395.6C340.3 395.7 339.5 395.8 338.7 395.9C337 394.2 335.3 392.5 333.5 390.9C334.3 390.9 335.2 390.8 336.1 390.8C337.8 392.4 339.5 394 341.2 395.6ZM247.4 349C249.3 350.8 251.1 352.7 253 354.6H252.9C252 354.8 251.1 355 250.3 355.3C248.4 353.3 246.6 351.4 244.7 349.5C245.6 349.3 246.5 349.1 247.4 349ZM243.4 348C241.6 346.2 239.8 344.4 238 342.6C238.9 342.5 239.7 342.4 240.6 342.4C242.4 344.1 244.2 345.8 246 347.6C245.1 347.7 244.3 347.9 243.4 348ZM249.4 348.7C250.3 348.6 251.1 348.5 252 348.5C253.8 350.2 255.6 351.9 257.4 353.7H257.3C256.4 353.8 255.6 354 254.7 354.2C252.9 352.3 251.1 350.5 249.4 348.7ZM258.8 355.1C260.6 356.9 262.5 358.8 264.3 360.6C263.4 360.8 262.6 361 261.7 361.3C259.8 359.3 258 357.4 256.1 355.5C257 355.3 257.9 355.2 258.8 355.1ZM260.8 354.8C261.7 354.7 262.5 354.6 263.4 354.6C265.2 356.3 266.9 358 268.7 359.8C267.8 359.9 267 360.1 266.1 360.3C264.3 358.4 262.5 356.6 260.8 354.8ZM270.1 361.1C271.9 362.9 273.8 364.8 275.6 366.6C274.7 366.8 273.9 367 273 367.3C271.1 365.3 269.3 363.4 267.4 361.5C268.3 361.4 269.2 361.3 270.1 361.1ZM272.1 360.9C273 360.8 273.8 360.7 274.7 360.7C276.5 362.4 278.2 364.1 280 365.9C279.1 366 278.3 366.2 277.4 366.4C275.7 364.4 273.9 362.6 272.1 360.9ZM281.5 367.2C283.3 369 285.2 370.9 287 372.7C286.1 372.9 285.3 373.1 284.4 373.4C282.5 371.4 280.7 369.5 278.8 367.6C279.7 367.5 280.6 367.3 281.5 367.2ZM283.4 366.9C284.3 366.8 285.1 366.7 286 366.7C287.8 368.4 289.5 370.1 291.3 371.9C290.4 372 289.6 372.2 288.7 372.4C287 370.5 285.2 368.7 283.4 366.9ZM292.8 373.3C294.6 375.1 296.5 377 298.3 378.8C297.4 379 296.6 379.2 295.7 379.5C293.8 377.5 292 375.6 290.1 373.7C291 373.6 291.9 373.4 292.8 373.3ZM294.8 373C295.7 372.9 296.5 372.8 297.4 372.8C299.2 374.5 300.9 376.2 302.7 378C301.8 378.1 301 378.3 300.1 378.5C298.4 376.6 296.6 374.8 294.8 373ZM304.1 379.3C305.9 381.1 307.8 383 309.6 384.9C308.7 385.1 307.9 385.3 307 385.6C305.1 383.6 303.3 381.7 301.4 379.8C302.3 379.6 303.2 379.5 304.1 379.3ZM306.1 379.1C307 379 307.8 378.9 308.7 378.9C310.5 380.6 312.3 382.3 314 384.1C313.1 384.2 312.3 384.4 311.4 384.6C309.7 382.7 307.9 380.9 306.1 379.1ZM315.5 385.4C317.3 387.2 319.2 389.1 321 390.9C320.1 391.1 319.3 391.3 318.4 391.6C316.5 389.6 314.7 387.7 312.8 385.8C313.7 385.7 314.6 385.6 315.5 385.4ZM317.5 385.2C318.4 385.1 319.2 385 320.1 385C321.9 386.7 323.6 388.4 325.4 390.2C324.5 390.3 323.7 390.5 322.8 390.7C321 388.7 319.2 386.9 317.5 385.2ZM326.8 391.5C328.6 393.3 330.5 395.2 332.3 397.1C331.4 397.3 330.6 397.5 329.7 397.8C327.8 395.8 326 393.9 324.1 392C325 391.8 325.9 391.6 326.8 391.5ZM328.8 391.2C329.7 391.1 330.5 391 331.4 391C333.2 392.7 335 394.4 336.7 396.2C335.8 396.3 335 396.5 334.1 396.7C332.4 394.8 330.6 393 328.8 391.2ZM332 389.4C330.4 387.8 328.7 386.3 327.1 384.8C327.9 384.8 328.7 384.8 329.6 384.9C331.2 386.3 332.8 387.8 334.4 389.3C333.6 389.3 332.8 389.3 332 389.4ZM329.9 389.5C329.1 389.6 328.2 389.7 327.4 389.8C325.7 388.1 324 386.4 322.2 384.8C323 384.8 323.9 384.7 324.8 384.7C326.5 386.3 328.2 387.9 329.9 389.5ZM320.6 383.3C319 381.7 317.3 380.2 315.7 378.7C316.5 378.7 317.3 378.7 318.2 378.8C319.8 380.2 321.4 381.7 323.1 383.2C322.2 383.2 321.4 383.2 320.6 383.3ZM318.5 383.4C317.7 383.5 316.8 383.6 316 383.7C314.3 382 312.6 380.3 310.8 378.7C311.6 378.7 312.5 378.6 313.4 378.6C315.1 380.2 316.8 381.8 318.5 383.4ZM307.2 377.4C306.4 377.5 305.5 377.6 304.7 377.7C303 376 301.3 374.3 299.6 372.7C300.4 372.7 301.3 372.6 302.2 372.6C303.8 374.1 305.5 375.7 307.2 377.4ZM295.8 371.3C295 371.4 294.1 371.5 293.3 371.6C291.6 369.9 289.9 368.2 288.2 366.6C289 366.6 289.9 366.5 290.8 366.5C292.4 368.1 294.1 369.7 295.8 371.3ZM286.6 365.1C285 363.5 283.3 362 281.7 360.5C282.5 360.5 283.3 360.5 284.2 360.6C285.8 362 287.4 363.5 289.1 365C288.2 365 287.4 365 286.6 365.1ZM284.5 365.2C283.7 365.3 282.8 365.4 282 365.5C280.3 363.8 278.6 362.1 276.9 360.5C277.7 360.5 278.6 360.4 279.5 360.4C281.1 362 282.8 363.6 284.5 365.2ZM277.7 358.9C276.9 358.9 276.1 359 275.3 359C273.7 357.4 272 355.9 270.4 354.4C271.2 354.4 272 354.4 272.9 354.5C274.4 355.9 276.1 357.4 277.7 358.9ZM273.2 359.2C272.4 359.3 271.5 359.4 270.7 359.5C269 357.8 267.3 356.1 265.5 354.5C266.3 354.5 267.2 354.4 268.1 354.4C269.8 355.9 271.5 357.5 273.2 359.2ZM266.3 352.8C265.5 352.8 264.7 352.9 263.9 352.9C262.3 351.3 260.6 349.8 259 348.3C259.8 348.3 260.6 348.3 261.5 348.4C263.1 349.8 264.7 351.3 266.3 352.8ZM261.8 353.1C260.9 353.2 260 353.3 259.2 353.4C257.5 351.7 255.8 350 254 348.4C254.8 348.4 255.7 348.3 256.6 348.3C258.4 349.8 260.1 351.5 261.8 353.1ZM255 346.7C254.2 346.7 253.4 346.8 252.6 346.8C251 345.2 249.3 343.7 247.7 342.2C248.5 342.2 249.3 342.2 250.2 342.3C251.7 343.7 253.4 345.2 255 346.7ZM250.5 347C249.6 347.1 248.8 347.2 247.9 347.3C246.2 345.6 244.5 343.9 242.8 342.3C243.6 342.3 244.5 342.2 245.4 342.2C247.1 343.8 248.8 345.4 250.5 347ZM241.2 340.8C239.6 339.2 237.9 337.7 236.3 336.2C237.1 336.2 237.9 336.2 238.8 336.3C240.4 337.7 242 339.2 243.7 340.7C242.9 340.7 242 340.7 241.2 340.8ZM239.2 340.9C238.4 341 237.5 341.1 236.7 341.2C235 339.5 233.3 337.8 231.6 336.2C232.4 336.2 233.3 336.1 234.2 336.1C235.7 337.7 237.4 339.3 239.2 340.9ZM229.9 334.7C228.3 333.1 226.6 331.6 225 330.1C225.8 330.1 226.6 330.1 227.5 330.2C229.1 331.6 230.7 333.1 232.3 334.6C231.5 334.6 230.7 334.6 229.9 334.7ZM229.4 336.3C231.2 338 232.9 339.7 234.7 341.5C233.8 341.6 233 341.8 232.1 342C230.3 340.2 228.5 338.4 226.7 336.6C227.6 336.5 228.5 336.4 229.4 336.3ZM236.1 342.9C237.9 344.7 239.8 346.6 241.7 348.4C240.8 348.6 239.9 348.8 239.1 349.1C237.2 347.1 235.4 345.2 233.5 343.3C234.3 343.2 235.2 343 236.1 342.9ZM242.9 349.8C244.8 351.7 246.8 353.7 248.7 355.7H248.6C247.7 356 246.9 356.2 246 356.6C245.1 355.6 244.1 354.6 243.2 353.6C242.2 352.5 241.2 351.5 240.2 350.5C241.1 350.2 242 350 242.9 349.8ZM249.9 357C251.1 358.2 252.2 359.4 253.4 360.7C254.2 361.6 255 362.4 255.8 363.3C255.1 363.6 254.3 363.9 253.6 364.2C251.5 362.1 249.4 360 247.3 357.9C248.2 357.5 249 357.2 249.9 357ZM254.6 359.6C253.6 358.5 252.6 357.5 251.6 356.5C252.5 356.3 253.4 356.1 254.3 355.9C256.2 357.8 258.1 359.8 260 361.8C259.1 362.1 258.3 362.4 257.4 362.7C256.5 361.6 255.5 360.6 254.6 359.6ZM261.2 363.1C262.4 364.3 263.5 365.5 264.7 366.8C265.5 367.7 266.3 368.5 267.1 369.4C266.4 369.7 265.6 370 264.9 370.3C262.8 368.2 260.7 366.1 258.6 364C259.5 363.6 260.4 363.3 261.2 363.1ZM265.9 365.7C264.9 364.6 263.9 363.6 262.9 362.6C263.8 362.4 264.7 362.2 265.6 362C267.5 363.9 269.4 365.9 271.3 367.9C270.4 368.2 269.6 368.4 268.7 368.8C267.8 367.7 266.8 366.7 265.9 365.7ZM272.6 369.1C273.7 370.3 274.9 371.5 276.1 372.8C276.9 373.7 277.7 374.5 278.5 375.4C277.8 375.7 277 376 276.3 376.3C274.2 374.2 272.1 372.1 270 370C270.8 369.7 271.7 369.4 272.6 369.1ZM277.2 371.8C276.2 370.7 275.2 369.7 274.2 368.7C275.1 368.5 276 368.3 276.9 368.1C278.8 370 280.7 372 282.6 374C281.7 374.3 280.9 374.6 280 374.9C279.1 373.8 278.2 372.8 277.2 371.8ZM283.9 375.2C285.1 376.4 286.2 377.6 287.4 378.9C288.2 379.8 289 380.6 289.8 381.5C289.1 381.8 288.3 382.1 287.6 382.4C285.5 380.3 283.4 378.2 281.3 376.1C282.2 375.8 283.1 375.5 283.9 375.2ZM288.6 377.9C287.6 376.8 286.6 375.8 285.6 374.8C286.5 374.6 287.4 374.4 288.3 374.2C290.2 376.1 292.1 378.1 294 380.1C293.1 380.4 292.3 380.6 291.4 381C290.5 379.9 289.5 378.9 288.6 377.9ZM295.2 381.3C296.4 382.5 297.5 383.7 298.7 385C299.5 385.9 300.3 386.7 301.2 387.6C300.5 387.9 299.7 388.2 299 388.5C296.9 386.4 294.8 384.3 292.7 382.2C293.5 381.8 294.4 381.5 295.2 381.3ZM299.9 383.9C298.9 382.8 297.9 381.8 296.9 380.8C297.8 380.6 298.7 380.4 299.6 380.2C301.5 382.1 303.4 384.1 305.3 386.1C304.4 386.4 303.6 386.6 302.7 387C301.8 385.9 300.9 384.9 299.9 383.9ZM306.6 387.4C307.8 388.6 308.9 389.8 310.1 391.1C310.9 392 311.7 392.8 312.5 393.7C311.8 394 311 394.3 310.3 394.6C308.2 392.5 306.1 390.4 304 388.3C304.9 387.9 305.7 387.6 306.6 387.4ZM311.3 390C310.3 388.9 309.3 387.9 308.3 386.9C309.2 386.7 310.1 386.5 311 386.3C312.9 388.2 314.8 390.2 316.7 392.2C315.8 392.5 315 392.8 314.1 393.1C313.2 392 312.2 391 311.3 390ZM317.9 393.5C319.1 394.7 320.2 395.9 321.4 397.2C322.2 398.1 323 398.9 323.9 399.8C323.2 400.1 322.4 400.4 321.7 400.7C319.6 398.6 317.5 396.5 315.4 394.4C316.2 394 317.1 393.7 317.9 393.5ZM322.6 396.1C321.6 395 320.6 394 319.6 393C320.5 392.8 321.4 392.6 322.3 392.4C324.2 394.3 326.1 396.3 328 398.3C327.1 398.6 326.3 398.9 325.4 399.2C324.5 398.1 323.5 397.1 322.6 396.1ZM329.3 399.5C330.5 400.7 331.6 401.9 332.8 403.2C333.6 404.1 334.4 404.9 335.2 405.7C334.5 406 333.7 406.3 333 406.6C330.9 404.5 328.8 402.4 326.7 400.3C327.5 400.1 328.4 399.8 329.3 399.5ZM334 402.2C333 401.1 332 400.1 331 399.1C331.9 398.9 332.8 398.7 333.7 398.5C335.6 400.4 337.5 402.4 339.4 404.4C338.5 404.7 337.7 405 336.8 405.3C335.8 404.2 334.9 403.2 334 402.2ZM335.5 398C336.4 397.8 337.3 397.7 338.2 397.6C340 399.4 341.9 401.3 343.7 403.1C342.8 403.3 342 403.5 341.1 403.8C339.2 401.8 337.4 399.9 335.5 398ZM345 404.5C346.9 406.4 348.8 408.4 350.7 410.4C349.8 410.7 349 411 348.1 411.3C347.1 410.3 346.2 409.3 345.3 408.3C344.3 407.2 343.3 406.2 342.3 405.2C343.2 404.9 344.1 404.7 345 404.5ZM346.8 404.1C347.7 403.9 348.6 403.8 349.5 403.7C351.3 405.5 353.2 407.4 355 409.2C354.1 409.4 353.3 409.6 352.4 409.9C350.6 407.9 348.7 406 346.8 404.1ZM356.4 410.5C358.3 412.4 360.2 414.4 362.1 416.4C361.2 416.7 360.4 416.9 359.5 417.2C358.5 416.2 357.6 415.2 356.7 414.2C355.7 413.1 354.7 412.1 353.7 411.1C354.6 411 355.5 410.7 356.4 410.5ZM358.2 410.2C359.1 410 360 409.9 360.9 409.8C362.7 411.6 364.6 413.5 366.4 415.3C365.5 415.5 364.7 415.7 363.8 416C361.9 414 360 412.1 358.2 410.2ZM362.8 409.5C363.7 409.4 364.5 409.3 365.4 409.3C367.2 411 368.9 412.7 370.7 414.5C369.8 414.6 369 414.8 368.1 415C366.4 413 364.6 411.2 362.8 409.5ZM372.2 415.8C377.8 421.4 383.6 427.3 389.5 433.5C390.2 434.3 390.9 435 391.6 435.8C390.2 435.5 388.9 435.2 387.5 434.9C384.7 432.2 382 429.3 379.3 426.5C376 423 372.7 419.6 369.5 416.3C370.4 416.1 371.3 416 372.2 415.8ZM390.7 432.6C385.1 426.6 379.6 421 374.2 415.6C375.1 415.5 375.9 415.4 376.8 415.4C383.9 422.2 391.1 429.5 398.6 437.4C397.2 437.1 395.8 436.8 394.4 436.5C393.1 435.2 391.9 433.9 390.7 432.6ZM396.3 438.4C397.7 438.7 399 439 400.4 439.2L400.8 439.6C401.5 440.4 402.2 441.1 403 441.9C401.6 441.6 400.3 441.3 398.9 441C398 440.1 397.2 439.3 396.3 438.4ZM401.3 437.9C393.6 429.8 386.2 422.2 379 415.2C379.8 415.2 380.7 415.1 381.6 415.1C389.3 422.2 397.3 430.1 405.5 438.6C404 438.4 402.6 438.1 401.3 437.9ZM386.2 415.2C394.5 422.6 403.1 430.8 412 439.8C410.7 439.6 409.4 439.3 408.1 439.1C399.8 430.4 391.7 422.4 383.8 415.1C384.6 415.2 385.4 415.2 386.2 415.2ZM403.1 439.8C404.5 440.1 405.9 440.3 407.3 440.6C408.2 441.5 409.1 442.5 410 443.5C408.6 443.2 407.2 442.9 405.8 442.6C404.8 441.6 404 440.7 403.1 439.8ZM411.7 445.3L412.1 445.7C412.8 446.5 413.5 447.2 414.3 448C412.9 447.7 411.6 447.4 410.2 447.1C409.3 446.3 408.5 445.4 407.6 444.5C408.9 444.8 410.3 445.1 411.7 445.3ZM412.6 443.9L409.8 441C411.1 441.2 412.4 441.4 413.8 441.7C414.8 442.7 415.8 443.7 416.8 444.7C415.4 444.5 414 444.2 412.6 443.9ZM416.4 442.1C417.7 442.3 418.9 442.5 420.2 442.7C421.3 443.8 422.3 444.8 423.4 445.9C422.1 445.7 420.8 445.4 419.5 445.2C418.4 444.2 417.4 443.1 416.4 442.1ZM418.6 446.6C419.4 447.5 420.3 448.5 421.2 449.5C419.8 449.2 418.4 448.9 417 448.6C416.1 447.7 415.3 446.8 414.4 445.9C415.8 446.1 417.2 446.4 418.6 446.6ZM423.1 451.4L423.5 451.8C424.2 452.6 424.9 453.3 425.7 454.1C424.3 453.8 423 453.5 421.6 453.2C420.7 452.4 419.9 451.5 419 450.6C420.3 450.9 421.7 451.1 423.1 451.4ZM423.9 450L421.1 447.1C422.4 447.3 423.7 447.6 425.1 447.8C426.1 448.8 427.1 449.8 428.1 450.8C426.7 450.5 425.3 450.3 423.9 450ZM443.4 450.4C444.6 451.5 445.8 452.7 447 453.9C445.8 453.7 444.7 453.6 443.5 453.4C442.3 452.2 441.2 451.1 440 450C441.2 450.1 442.3 450.3 443.4 450.4ZM477.4 468.6C478.6 469.7 479.8 470.9 481 472.1C479.8 471.9 478.7 471.8 477.5 471.6C476.3 470.4 475.2 469.3 474.1 468.2C475.2 468.4 476.3 468.5 477.4 468.6ZM482.9 474C484 475.1 485.2 476.2 486.3 477.3C485.1 477.1 483.8 476.9 482.6 476.7C481.5 475.6 480.5 474.5 479.4 473.4C480.6 473.6 481.7 473.8 482.9 474ZM488.2 479.2C489.2 480.3 490.3 481.3 491.4 482.4C490.1 482.2 488.8 481.9 487.5 481.7C486.5 480.7 485.5 479.6 484.5 478.6C485.7 478.8 486.9 479 488.2 479.2ZM473.1 472.5C474.3 472.7 475.6 472.9 476.8 473.1C477.9 474.2 478.9 475.2 480 476.3C478.7 476.1 477.4 475.8 476.1 475.6L473.1 472.5ZM461.8 466.4C463 466.6 464.3 466.8 465.5 467C466.6 468.1 467.6 469.1 468.7 470.2C467.4 470 466.1 469.7 464.8 469.5L461.8 466.4ZM456.7 461.3C457.9 461.5 459 461.6 460.2 461.8C461.3 462.9 462.5 464 463.6 465.2C462.4 465 461.1 464.8 459.9 464.6C458.9 463.5 457.8 462.4 456.7 461.3ZM450.4 460.3C451.7 460.5 452.9 460.7 454.1 460.9C455.2 462 456.2 463 457.3 464.1C456 463.9 454.7 463.6 453.4 463.4C452.4 462.4 451.4 461.3 450.4 460.3ZM445.4 455.2C446.6 455.4 447.7 455.6 448.9 455.7C450 456.8 451.2 457.9 452.3 459C451.1 458.8 449.8 458.6 448.6 458.4C447.5 457.4 446.4 456.3 445.4 455.2ZM446 458C444.7 457.8 443.4 457.5 442.1 457.3L439.1 454.2C440.3 454.4 441.6 454.6 442.8 454.8C443.9 455.9 444.9 457 446 458ZM458.4 460C457.2 459.8 456.1 459.7 454.9 459.5C453.7 458.3 452.6 457.2 451.5 456.1C452.6 456.2 453.7 456.4 454.8 456.5C455.9 457.6 457.2 458.8 458.4 460ZM469.7 466.1C468.5 465.9 467.4 465.8 466.2 465.6C465 464.4 463.9 463.3 462.8 462.2C463.9 462.3 465 462.5 466.1 462.6C467.3 463.7 468.5 464.9 469.7 466.1ZM468.1 467.4C469.3 467.6 470.4 467.7 471.6 467.9C472.7 469 473.9 470.1 475 471.3C473.8 471.1 472.5 470.9 471.3 470.7C470.2 469.6 469.1 468.5 468.1 467.4ZM472.3 466.4C471.1 465.2 469.8 464 468.6 462.8L471.6 463.1C472.9 464.3 474.2 465.5 475.5 466.7C474.4 466.7 473.4 466.6 472.3 466.4ZM466.8 461.1C465.5 459.9 464.2 458.6 462.9 457.4L465.6 457.7C467 458.9 468.4 460.2 469.8 461.4L466.8 461.1ZM464.2 460.8C463.1 460.7 462.1 460.5 461 460.4C459.8 459.2 458.5 458 457.3 456.8L460.3 457.1C461.6 458.3 462.9 459.5 464.2 460.8ZM455.5 455C454.2 453.8 452.9 452.5 451.6 451.3L454.3 451.6C455.7 452.8 457.1 454.1 458.5 455.3L455.5 455ZM452.8 454.7C451.7 454.6 450.7 454.4 449.6 454.3C448.4 453.1 447.1 451.9 445.9 450.7L448.9 451C450.2 452.3 451.5 453.5 452.8 454.7ZM441 453C439.8 452.8 438.5 452.6 437.3 452.4C436.2 451.3 435.2 450.2 434.1 449.1C435.3 449.3 436.4 449.4 437.6 449.6C438.7 450.8 439.8 451.9 441 453ZM434.6 452C433.3 451.8 432 451.5 430.7 451.3C429.7 450.3 428.7 449.2 427.7 448.2C428.9 448.4 430.2 448.6 431.4 448.8C432.5 449.8 433.6 450.9 434.6 452ZM429.9 452.7C430.8 453.6 431.7 454.6 432.6 455.6C431.2 455.3 429.8 455 428.4 454.7C427.5 453.8 426.7 452.9 425.8 452C427.1 452.2 428.5 452.4 429.9 452.7ZM434.4 457.5L434.8 457.9C435.5 458.7 436.2 459.4 437 460.2C435.6 459.9 434.3 459.6 432.9 459.3C432 458.5 431.2 457.6 430.3 456.7C431.7 456.9 433.1 457.2 434.4 457.5ZM435.3 456.1L432.5 453.2C433.8 453.4 435.1 453.7 436.5 453.9C437.5 454.9 438.5 455.9 439.4 456.9C438 456.6 436.7 456.3 435.3 456.1ZM441.2 458.8C442.1 459.7 443 460.7 443.9 461.7C442.5 461.4 441.1 461.1 439.7 460.8C438.8 459.9 438 459 437.1 458.1C438.5 458.3 439.9 458.5 441.2 458.8ZM445.8 463.5L446.2 463.9C446.9 464.7 447.6 465.4 448.4 466.2C447 465.9 445.7 465.6 444.3 465.3C443.4 464.5 442.6 463.6 441.7 462.7C443 463 444.4 463.3 445.8 463.5ZM446.6 462.1L443.8 459.2C445.1 459.4 446.4 459.7 447.8 459.9C448.8 460.9 449.8 461.9 450.8 462.9C449.4 462.7 448 462.4 446.6 462.1ZM457.9 468.2L455.2 465.3C456.5 465.5 457.8 465.7 459.2 466C460.2 467 461.2 468 462.1 469C460.7 468.8 459.3 468.5 457.9 468.2ZM468.4 475.7L468.8 476.1C469.5 476.9 470.2 477.6 471 478.4C469.6 478.1 468.3 477.8 466.9 477.5C466 476.7 465.2 475.8 464.3 474.9C465.7 475.1 467.1 475.4 468.4 475.7ZM469.3 474.3L466.5 471.4C467.8 471.6 469.1 471.9 470.5 472.1C471.5 473.1 472.5 474.1 473.4 475.1C472.1 474.8 470.7 474.6 469.3 474.3ZM480.6 480.4L477.8 477.5C479.1 477.7 480.4 478 481.8 478.2C482.8 479.2 483.8 480.2 484.7 481.2C483.4 480.9 482 480.7 480.6 480.4ZM486.6 483.1C487.5 484 488.4 485 489.3 486C487.9 485.7 486.5 485.4 485.1 485.1C484.2 484.2 483.4 483.3 482.5 482.4C483.9 482.6 485.2 482.8 486.6 483.1ZM491.1 487.8L491.5 488.2C492.2 489 492.9 489.7 493.7 490.5C492.3 490.2 491 489.9 489.6 489.6C488.7 488.8 487.9 487.9 487 487C488.4 487.3 489.7 487.6 491.1 487.8ZM491.9 486.4L489.1 483.5C490.4 483.8 491.8 484 493.1 484.2C494.1 485.2 495.1 486.2 496 487.2C494.7 487 493.3 486.7 491.9 486.4ZM498.8 487.7C497.8 486.7 496.8 485.6 495.8 484.6C497 484.8 498.3 485 499.5 485.2C500.6 486.3 501.6 487.3 502.7 488.4C501.4 488.2 500.1 488 498.8 487.7ZM494 482.8C492.9 481.7 491.9 480.6 490.8 479.5C492 479.7 493.1 479.8 494.3 480C495.4 481.1 496.6 482.2 497.7 483.4C496.4 483.2 495.2 483 494 482.8ZM489 477.7C487.8 476.5 486.7 475.4 485.5 474.3C486.6 474.4 487.7 474.6 488.8 474.7C490 475.8 491.2 477 492.4 478.2C491.3 478.1 490.1 477.9 489 477.7ZM483.7 472.5C482.5 471.3 481.2 470.1 480 468.9L483 469.2C484.3 470.4 485.6 471.6 486.9 472.8C485.8 472.8 484.7 472.7 483.7 472.5ZM478.2 467.2C476.9 466 475.6 464.7 474.3 463.5L477 463.8C478.4 465 479.8 466.3 481.2 467.5L478.2 467.2ZM472.4 461.8C471 460.5 469.6 459.3 468.2 458L470.5 458.2C472 459.5 473.4 460.7 474.9 462L472.4 461.8ZM466.3 456.2C464.8 454.9 463.3 453.6 461.9 452.3L463.8 452.5C465.4 453.8 467 455.1 468.5 456.5L466.3 456.2ZM463.6 455.9L461 455.6C459.6 454.3 458.2 453.1 456.8 451.8L459.1 452C460.6 453.4 462.1 454.6 463.6 455.9ZM459.8 450.6C458.2 449.2 456.6 447.9 455 446.6L456.4 446.7C458.1 448 459.8 449.4 461.5 450.7L459.8 450.6ZM457.1 450.4L454.9 450.2C453.4 448.9 451.9 447.6 450.5 446.3L452.4 446.5C454 447.7 455.5 449 457.1 450.4ZM452.2 449.9L449.6 449.6C448.2 448.3 446.8 447.1 445.4 445.8L447.7 446C449.3 447.3 450.8 448.6 452.2 449.9ZM447 449.3L444.1 449C442.8 447.8 441.5 446.5 440.2 445.3L442.9 445.6C444.3 446.8 445.7 448 447 449.3ZM441.5 448.6C440.4 448.5 439.4 448.3 438.3 448.2C437.1 447 435.9 445.8 434.6 444.6L437.6 445C438.9 446.2 440.2 447.4 441.5 448.6ZM435.7 447.8C434.5 447.6 433.4 447.5 432.2 447.3C431 446.1 429.9 445 428.8 443.9C429.9 444 431 444.2 432.1 444.3C433.3 445.5 434.5 446.7 435.7 447.8ZM429.6 446.9C428.4 446.7 427.1 446.5 425.9 446.3C424.8 445.2 423.8 444.1 422.7 443C423.9 443.2 425 443.3 426.2 443.5C427.4 444.7 428.5 445.8 429.6 446.9ZM424.3 441.8C423.1 441.6 422 441.5 420.8 441.3C411.5 432 402.5 423.6 393.8 416.1C394.5 416.2 395.2 416.3 395.9 416.5C405.1 423.8 414.6 432.3 424.3 441.8ZM386.8 413.6C385.4 412.3 384 411.1 382.6 409.9C383.3 410 384 410.1 384.7 410.3C386.1 411.4 387.5 412.6 388.9 413.8C388.2 413.7 387.5 413.7 386.8 413.6ZM384.3 413.5C383.5 413.5 382.8 413.5 382 413.5C380.5 412.1 378.9 410.7 377.4 409.3C378.2 409.4 379 409.5 379.7 409.5C381.3 410.9 382.8 412.2 384.3 413.5ZM375.5 407.6C374.1 406.3 372.7 405.1 371.3 403.9C372 404 372.7 404.1 373.4 404.3C374.8 405.5 376.2 406.6 377.6 407.8C376.9 407.7 376.2 407.6 375.5 407.6ZM364.1 401.5C362.7 400.2 361.3 399 359.9 397.8C360.6 397.9 361.3 398 362 398.2C363.4 399.3 364.8 400.5 366.2 401.7C365.5 401.6 364.8 401.5 364.1 401.5ZM361.6 401.4C360.8 401.4 360.1 401.4 359.3 401.4C357.8 400 356.2 398.6 354.7 397.2C355.5 397.3 356.3 397.4 357 397.4C358.6 398.7 360.1 400 361.6 401.4ZM354.9 395.6C354.2 395.5 353.5 395.5 352.8 395.4C351.4 394.1 350 392.9 348.6 391.7C349.3 391.8 350 391.9 350.7 392.1C352.1 393.2 353.5 394.4 354.9 395.6ZM350.3 395.3C349.5 395.3 348.8 395.3 348 395.3C346.5 393.9 344.9 392.5 343.4 391.1C344.2 391.2 345 391.3 345.7 391.3C347.2 392.6 348.8 394 350.3 395.3ZM343.6 389.5C342.9 389.4 342.2 389.4 341.5 389.3C340.1 388 338.7 386.8 337.3 385.6C338 385.7 338.7 385.8 339.4 386C340.8 387.1 342.2 388.3 343.6 389.5ZM339 389.2C338.2 389.2 337.5 389.2 336.7 389.2C335.2 387.8 333.6 386.4 332.1 385C332.9 385.1 333.7 385.2 334.4 385.2C335.9 386.6 337.4 387.9 339 389.2ZM332.2 383.4C331.5 383.3 330.8 383.3 330.1 383.2C328.7 381.9 327.3 380.7 325.9 379.5C326.6 379.6 327.3 379.7 328 379.8C329.4 381.1 330.8 382.2 332.2 383.4ZM327.6 383.2C326.8 383.2 326.1 383.2 325.3 383.2C323.8 381.8 322.2 380.4 320.7 379C321.5 379.1 322.3 379.2 323 379.2C324.6 380.5 326.1 381.8 327.6 383.2ZM318.8 377.2C317.4 375.9 316 374.7 314.6 373.5C315.3 373.6 316 373.7 316.7 373.9C318.1 375.1 319.5 376.2 320.9 377.4C320.2 377.3 319.5 377.2 318.8 377.2ZM316.3 377.1C315.5 377.1 314.8 377.1 314 377.1C312.5 375.7 310.9 374.3 309.4 372.9C310.2 373 311 373.1 311.7 373.1C313.2 374.4 314.8 375.7 316.3 377.1ZM307.4 371.1C306 369.8 304.6 368.6 303.2 367.4C303.9 367.5 304.6 367.6 305.3 367.8C306.7 369 308.1 370.1 309.5 371.3C308.8 371.2 308.1 371.2 307.4 371.1ZM305 371C304.2 371 303.5 371 302.7 371C301.2 369.6 299.6 368.2 298.1 366.8C298.9 366.9 299.7 367 300.4 367C301.9 368.3 303.4 369.7 305 371ZM298.2 365.2C297.5 365.1 296.8 365.1 296.1 365C294.7 363.7 293.3 362.5 291.9 361.3C292.6 361.4 293.3 361.5 294 361.7C295.4 362.8 296.8 364 298.2 365.2ZM293.6 364.9C292.8 364.9 292.1 364.9 291.3 364.9C289.8 363.5 288.2 362.1 286.7 360.7C287.5 360.8 288.3 360.9 289 360.9C290.6 362.3 292.1 363.6 293.6 364.9ZM291.5 359.7C290.9 359.6 290.2 359.5 289.6 359.4C288.3 358.3 287.1 357.2 285.8 356.2C286.4 356.3 287 356.5 287.7 356.6C289 357.6 290.2 358.6 291.5 359.7ZM286.9 359.1C286.2 359 285.5 359 284.8 358.9C283.4 357.6 282 356.4 280.6 355.2C281.3 355.3 282 355.4 282.7 355.6C284.1 356.8 285.5 357.9 286.9 359.1ZM282.3 358.9C281.5 358.9 280.8 358.9 280 358.9C278.5 357.5 276.9 356.1 275.4 354.7C276.2 354.8 277 354.9 277.7 354.9C279.2 356.2 280.7 357.5 282.3 358.9ZM275.5 353C274.8 352.9 274.1 352.9 273.4 352.8C272 351.5 270.6 350.3 269.2 349.1C269.9 349.2 270.6 349.3 271.3 349.5C272.7 350.7 274.1 351.9 275.5 353ZM270.9 352.8C270.1 352.8 269.3 352.8 268.5 352.8C267 351.4 265.4 350 263.9 348.6C264.7 348.7 265.5 348.8 266.2 348.8C267.9 350.1 269.4 351.4 270.9 352.8ZM264.2 347C263.5 346.9 262.8 346.9 262.1 346.8C260.7 345.5 259.3 344.3 257.9 343.1C258.6 343.2 259.3 343.3 260 343.5C261.4 344.6 262.8 345.8 264.2 347ZM259.6 346.7C258.8 346.7 258 346.7 257.3 346.7C255.8 345.3 254.2 343.9 252.7 342.5C253.5 342.6 254.3 342.7 255 342.7C256.5 344 258.1 345.4 259.6 346.7ZM252.9 340.9C252.2 340.8 251.5 340.8 250.8 340.7C249.4 339.4 248 338.2 246.6 337C247.3 337.1 248 337.2 248.7 337.4C250 338.5 251.5 339.7 252.9 340.9ZM248.3 340.6C247.5 340.6 246.8 340.6 246 340.6C244.5 339.2 242.9 337.8 241.4 336.4C242.2 336.5 243 336.6 243.7 336.6C245.2 338 246.7 339.3 248.3 340.6ZM241.5 334.8C240.8 334.7 240.1 334.7 239.4 334.6C238 333.3 236.6 332.1 235.2 330.9C235.9 331 236.6 331.1 237.3 331.2C238.7 332.5 240.1 333.6 241.5 334.8ZM236.9 334.6C236.1 334.6 235.4 334.6 234.6 334.6C233.1 333.2 231.5 331.8 230 330.4C230.8 330.5 231.6 330.6 232.3 330.6C233.9 331.9 235.4 333.2 236.9 334.6ZM230.2 328.8C229.5 328.7 228.8 328.7 228.1 328.6C226.7 327.3 225.3 326.1 223.9 324.9C224.6 325 225.3 325.1 226 325.3C227.4 326.4 228.8 327.6 230.2 328.8ZM225.6 328.5C224.8 328.5 224.1 328.5 223.3 328.5C221.8 327.1 220.2 325.7 218.7 324.3C219.5 324.4 220.3 324.5 221 324.5C222.5 325.8 224 327.1 225.6 328.5ZM218.8 322.7C218.1 322.6 217.4 322.6 216.7 322.5C215.3 321.2 213.9 320 212.5 318.8C213.2 318.9 213.9 319 214.6 319.2C216 320.3 217.4 321.5 218.8 322.7ZM214.2 322.4C213.4 322.4 212.6 322.4 211.9 322.4C210.4 321 208.8 319.6 207.3 318.2C208.1 318.3 208.9 318.4 209.6 318.4C211.2 319.7 212.7 321.1 214.2 322.4ZM207.5 316.6C206.8 316.5 206.1 316.5 205.4 316.4C204 315.1 202.6 313.9 201.2 312.7C201.9 312.8 202.6 312.9 203.3 313.1C204.7 314.2 206.1 315.4 207.5 316.6ZM204.8 318C206.4 319.4 208 320.9 209.7 322.4C208.9 322.4 208.1 322.5 207.3 322.5C205.7 320.9 204 319.4 202.4 317.9C203.1 317.9 204 318 204.8 318ZM211.4 324C213.1 325.6 214.8 327.2 216.5 328.8C215.7 328.9 214.8 329 214 329.1C212.3 327.4 210.6 325.7 208.8 324.1C209.7 324 210.5 324 211.4 324ZM218 330.3C219.8 332 221.5 333.7 223.3 335.5C222.4 335.6 221.6 335.8 220.7 336C218.9 334.2 217.1 332.4 215.3 330.6C216.3 330.4 217.1 330.3 218 330.3ZM224.8 336.8C226.6 338.6 228.5 340.5 230.3 342.3C229.4 342.5 228.5 342.7 227.7 343C225.8 341 224 339.1 222.1 337.2C223 337.1 223.9 337 224.8 336.8ZM231.6 343.7C233.5 345.6 235.4 347.6 237.3 349.6C236.4 349.9 235.6 350.1 234.7 350.5C233.8 349.5 232.8 348.5 231.9 347.5C230.9 346.4 229.9 345.4 228.9 344.4C229.8 344.1 230.7 343.9 231.6 343.7ZM238.5 350.9C239.7 352.1 240.8 353.3 242 354.6C242.9 355.5 243.7 356.3 244.5 357.2H244.4C243.7 357.5 242.9 357.8 242.2 358.1C240.1 356 238 353.9 235.9 351.8C236.8 351.4 237.6 351.2 238.5 350.9ZM245.7 358.4C247.8 360.6 249.9 362.7 252.1 364.8C251.5 365.1 251 365.3 250.4 365.6C248.1 363.5 245.8 361.4 243.6 359.3C244.2 358.9 244.9 358.7 245.7 358.4ZM253.3 366C255.6 368.2 257.9 370.3 260.2 372.4C259.8 372.6 259.4 372.8 259 373.1C256.5 371 254.1 368.9 251.7 366.8C252.2 366.5 252.7 366.2 253.3 366ZM254.8 365.3C255.5 365 256.2 364.7 257 364.5C259.1 366.7 261.2 368.8 263.4 370.9C262.8 371.2 262.3 371.4 261.7 371.7C259.4 369.6 257.1 367.5 254.8 365.3ZM261.4 373.6C263.8 375.8 266.3 377.9 268.8 380L268 380.5C265.4 378.5 262.8 376.4 260.2 374.3C260.7 374 261.1 373.8 261.4 373.6ZM263 372.8C263.6 372.5 264.1 372.3 264.7 372C267 374.2 269.3 376.3 271.6 378.4C271.2 378.6 270.8 378.8 270.4 379.1C267.8 377.1 265.4 375 263 372.8ZM266.2 371.4C266.9 371.1 267.6 370.8 268.4 370.6C270.5 372.8 272.6 374.9 274.8 377C274.2 377.3 273.6 377.5 273.1 377.8C270.7 375.7 268.4 373.5 266.2 371.4ZM272.8 379.6C275.2 381.8 277.7 383.9 280.2 386L279.4 386.4C276.8 384.4 274.2 382.3 271.6 380.1C272 380 272.4 379.8 272.8 379.6ZM274.3 378.9C274.9 378.6 275.4 378.4 276 378.1C278.3 380.3 280.6 382.4 282.9 384.5C282.5 384.7 282.1 384.9 281.7 385.2C279.2 383.2 276.7 381 274.3 378.9ZM277.5 377.5C278.2 377.2 278.9 376.9 279.7 376.7C281.8 378.9 283.9 381 286.1 383.1C285.5 383.4 284.9 383.6 284.4 383.9C282.1 381.7 279.8 379.6 277.5 377.5ZM284.1 385.7C286.5 387.9 289 390 291.5 392.1L290.7 392.6C288.1 390.6 285.5 388.5 282.9 386.3C283.3 386.1 283.7 385.9 284.1 385.7ZM285.6 385C286.2 384.7 286.7 384.5 287.3 384.2C289.6 386.4 291.9 388.6 294.2 390.7C293.8 390.9 293.4 391.1 293 391.4C290.5 389.2 288 387.1 285.6 385ZM288.9 383.5C289.6 383.2 290.3 382.9 291.1 382.7C293.2 384.9 295.3 387 297.5 389.1C296.9 389.4 296.3 389.6 295.8 389.9C293.4 387.8 291.1 385.7 288.9 383.5ZM295.5 391.8C297.9 394 300.4 396.1 302.9 398.2L302.1 398.6C299.5 396.6 296.9 394.5 294.3 392.4C294.7 392.2 295.1 392 295.5 391.8ZM297 391C297.6 390.7 298.1 390.5 298.7 390.2C301 392.4 303.3 394.5 305.6 396.6C305.2 396.8 304.8 397 304.4 397.3C301.8 395.3 299.4 393.2 297 391ZM300.2 389.6C300.9 389.3 301.6 389 302.4 388.8C304.5 391 306.6 393.1 308.8 395.2C308.2 395.5 307.6 395.7 307.1 396C304.7 393.9 302.5 391.8 300.2 389.6ZM306.8 397.9C309.2 400.1 311.7 402.2 314.2 404.3L313.4 404.8C310.8 402.8 308.2 400.7 305.6 398.5C306 398.3 306.4 398.1 306.8 397.9ZM308.3 397.1C308.9 396.8 309.4 396.6 310 396.3C312.3 398.5 314.6 400.6 316.9 402.7C316.5 402.9 316.1 403.1 315.7 403.4C313.2 401.4 310.7 399.3 308.3 397.1ZM311.5 395.7C312.2 395.4 312.9 395.1 313.7 394.9C315.8 397.1 317.9 399.2 320.1 401.3C319.5 401.6 318.9 401.8 318.4 402.1C316.1 400 313.8 397.8 311.5 395.7ZM318.2 403.9C320.6 406.1 323.1 408.2 325.6 410.3L324.8 410.7C322.2 408.7 319.6 406.6 317 404.5C317.4 404.3 317.8 404.1 318.2 403.9ZM319.7 403.2C320.3 402.9 320.8 402.7 321.4 402.4C323.7 404.6 326 406.7 328.3 408.8C327.9 409 327.5 409.2 327.1 409.5C324.5 407.5 322.1 405.3 319.7 403.2ZM322.9 401.8C323.6 401.5 324.3 401.2 325.1 401C327.2 403.2 329.3 405.3 331.5 407.4C330.9 407.7 330.4 407.9 329.8 408.2C327.4 406 325.1 403.9 322.9 401.8ZM332.7 408.5C335 410.7 337.3 412.8 339.6 414.9C339.2 415.1 338.8 415.3 338.4 415.6C335.9 413.5 333.5 411.4 331.1 409.3C331.6 409 332.1 408.8 332.7 408.5ZM334.2 407.8C334.9 407.5 335.6 407.2 336.4 407C338.5 409.2 340.6 411.3 342.8 413.4C342.2 413.7 341.6 413.9 341.1 414.2C338.8 412.1 336.5 410 334.2 407.8ZM338 406.4C338.9 406.1 339.7 405.8 340.6 405.6C341.8 406.8 342.9 408 344.1 409.3C344.9 410.2 345.7 411 346.5 411.9C345.8 412.2 345 412.5 344.3 412.8C342.2 410.7 340.1 408.6 338 406.4ZM347.7 413.1C349.8 415.3 351.9 417.4 354.1 419.5C353.5 419.8 353 420 352.4 420.3C350.1 418.2 347.8 416.1 345.6 414C346.3 413.6 347 413.3 347.7 413.1ZM349.4 412.5C350.3 412.2 351.1 411.9 352 411.7C353.2 412.9 354.3 414.1 355.5 415.4C356.3 416.3 357.1 417.1 357.9 418C357.2 418.3 356.4 418.6 355.7 418.9C353.6 416.7 351.4 414.6 349.4 412.5ZM359.1 419.2C362.9 423.1 366.8 427 370.8 430.7C369.7 430.4 368.6 430.1 367.5 429.8C363.9 426.7 360.4 423.4 356.9 420.1C357.7 419.7 358.4 419.4 359.1 419.2ZM360.7 418.6C361.6 418.3 362.4 418 363.3 417.8C364.5 419 365.6 420.2 366.8 421.5C370.4 425.3 374 429 377.7 432.5C376.5 432.2 375.3 431.9 374.1 431.6C369.6 427.4 365.1 423.1 360.7 418.6ZM376.6 433.8C377.7 434.1 378.8 434.4 380 434.7C380.7 435.4 381.4 436.1 382.2 436.7C381.1 436.4 380 436.1 378.9 435.8C378.1 435.1 377.4 434.5 376.6 433.8ZM380.8 433.3C376.4 429.2 372.2 424.9 368 420.4C367 419.3 366 418.3 365 417.3C365.9 417.1 366.8 416.9 367.7 416.7C371.1 420.2 374.6 423.8 378.1 427.6C380.2 429.9 382.4 432.1 384.6 434.3C383.4 433.9 382.1 433.6 380.8 433.3ZM383.1 435.4C384.3 435.7 385.5 436 386.7 436.3C387.5 437.1 388.2 437.8 389 438.6C387.8 438.3 386.6 438 385.4 437.7C384.7 436.9 383.9 436.2 383.1 435.4ZM391.3 440.7C392 441.4 392.7 442.1 393.5 442.7C392.4 442.4 391.3 442.1 390.2 441.8C389.4 441.1 388.7 440.5 387.9 439.8C389.1 440.1 390.2 440.4 391.3 440.7ZM392.1 439.3C391.3 438.5 390.4 437.7 389.6 436.9C390.9 437.2 392.2 437.5 393.5 437.8C394.3 438.6 395.1 439.4 395.9 440.3C394.7 440 393.4 439.7 392.1 439.3ZM398 442.4C398.7 443.2 399.5 443.9 400.3 444.7C399.1 444.4 397.9 444.1 396.7 443.8C395.9 443.1 395.1 442.3 394.3 441.6C395.6 441.8 396.8 442.1 398 442.4ZM402.6 446.8C403.3 447.5 404 448.2 404.7 448.8C403.6 448.5 402.5 448.2 401.4 447.9C400.6 447.2 399.9 446.6 399.1 445.9C400.4 446.2 401.5 446.5 402.6 446.8ZM403.4 445.4C402.6 444.6 401.7 443.8 400.9 443C402.3 443.3 403.6 443.6 404.9 443.9H404.8C405.6 444.7 406.4 445.6 407.2 446.4C405.9 446.1 404.7 445.7 403.4 445.4ZM409.4 448.4C410.1 449.2 410.9 449.9 411.7 450.7C410.5 450.4 409.3 450.1 408.1 449.8C407.3 449.1 406.5 448.3 405.7 447.6C407 447.9 408.2 448.2 409.4 448.4ZM414 452.9C414.7 453.6 415.4 454.3 416.1 454.9C415 454.6 413.9 454.3 412.8 454C412 453.3 411.3 452.7 410.5 452C411.7 452.3 412.9 452.6 414 452.9ZM414.7 451.5C413.9 450.7 413 449.9 412.2 449.1C413.6 449.4 414.9 449.7 416.2 450H416.1C416.9 450.8 417.7 451.6 418.5 452.5C417.3 452.1 416 451.8 414.7 451.5ZM420.7 454.5C421.4 455.3 422.2 456 422.9 456.8C421.7 456.5 420.5 456.2 419.3 455.9C418.5 455.2 417.7 454.4 416.9 453.7C418.3 453.9 419.5 454.2 420.7 454.5ZM425.3 459C425.9 459.7 426.7 460.4 427.4 461C426.3 460.7 425.2 460.4 424.1 460.1C423.3 459.4 422.6 458.8 421.8 458.1C423 458.4 424.2 458.7 425.3 459ZM426.1 457.6C425.3 456.8 424.4 456 423.6 455.2C424.9 455.5 426.2 455.8 427.5 456.1C428.3 456.9 429.1 457.8 429.9 458.6C428.7 458.2 427.4 457.9 426.1 457.6ZM432.1 460.6C432.8 461.4 433.6 462.1 434.4 462.9C433.2 462.6 432 462.3 430.8 462C430 461.3 429.2 460.5 428.4 459.8C429.6 460 430.9 460.3 432.1 460.6ZM436.7 465C437.4 465.7 438.1 466.4 438.9 467C437.8 466.7 436.7 466.4 435.6 466.1C434.8 465.4 434.1 464.8 433.3 464.1C434.4 464.5 435.5 464.8 436.7 465ZM437.5 463.7C436.7 462.9 435.8 462.1 435 461.3C436.3 461.6 437.6 461.9 438.9 462.2C439.7 463 440.5 463.8 441.3 464.7C440 464.3 438.7 464 437.5 463.7ZM443.4 466.7C444.2 467.5 444.9 468.2 445.7 469C444.5 468.7 443.3 468.4 442.1 468.1C441.3 467.4 440.5 466.6 439.7 465.9C441 466.1 442.2 466.4 443.4 466.7ZM448 471.1C448.7 471.8 449.4 472.5 450.2 473.1C449.1 472.8 448 472.5 446.9 472.2C446.1 471.5 445.4 470.9 444.6 470.2C445.8 470.5 446.9 470.8 448 471.1ZM448.8 469.7C448 468.9 447.1 468.1 446.3 467.3C447.6 467.6 448.9 467.9 450.2 468.2C451 469 451.8 469.8 452.6 470.7C451.4 470.4 450.1 470 448.8 469.7ZM454.7 472.7C455.5 473.5 456.2 474.2 457 475C455.8 474.7 454.6 474.4 453.4 474.1C452.6 473.4 451.8 472.6 451 471.9C452.3 472.2 453.5 472.5 454.7 472.7ZM459.3 477.2C460 477.9 460.7 478.6 461.5 479.2C460.4 478.9 459.3 478.6 458.2 478.3C457.4 477.6 456.7 477 455.9 476.3C457.1 476.6 458.2 476.9 459.3 477.2ZM460.1 475.8C459.3 475 458.4 474.2 457.6 473.4C458.9 473.7 460.2 474 461.5 474.3C462.3 475.1 463.1 475.9 463.9 476.8C462.7 476.4 461.4 476.1 460.1 475.8ZM466.1 478.8C466.9 479.6 467.6 480.3 468.4 481.1C467.2 480.8 466 480.5 464.8 480.2C464 479.5 463.2 478.7 462.4 478C463.7 478.3 464.9 478.5 466.1 478.8ZM470.7 483.3C471.4 484 472.1 484.7 472.9 485.3C471.8 485 470.7 484.7 469.6 484.4C468.8 483.7 468.1 483.1 467.3 482.4C468.4 482.7 469.6 483 470.7 483.3ZM471.5 481.9C470.7 481.1 469.8 480.3 469 479.5C470.3 479.8 471.6 480.1 472.9 480.4C473.7 481.2 474.5 482 475.3 482.9C474 482.5 472.7 482.2 471.5 481.9ZM482.8 488C482 487.2 481.1 486.4 480.3 485.6C481.6 485.9 482.9 486.2 484.2 486.5C485 487.3 485.8 488.2 486.6 489C485.4 488.6 484.1 488.3 482.8 488ZM493.4 495.4C494.1 496.1 494.8 496.8 495.6 497.4C494.5 497.1 493.4 496.8 492.3 496.5C491.5 495.8 490.8 495.2 490 494.5C491.1 494.8 492.2 495.1 493.4 495.4ZM494.2 494C493.4 493.2 492.5 492.4 491.7 491.6C493 491.9 494.3 492.2 495.6 492.5C496.4 493.3 497.2 494.1 498 495C496.7 494.7 495.4 494.3 494.2 494ZM500.1 497C500.9 497.8 501.6 498.5 502.4 499.3C501.2 499 500 498.7 498.8 498.4C498 497.7 497.2 496.9 496.4 496.2C497.7 496.5 498.9 496.8 500.1 497ZM504.7 501.5C505.4 502.2 506.1 502.9 506.8 503.5C505.7 503.2 504.6 502.9 503.5 502.6C502.7 501.9 502 501.3 501.2 500.6C502.5 500.9 503.6 501.2 504.7 501.5ZM505.5 500.1C504.7 499.3 503.8 498.5 503 497.7C504.3 498 505.6 498.3 506.9 498.6C507.7 499.4 508.5 500.2 509.3 501.1C508.1 500.8 506.8 500.4 505.5 500.1ZM516.8 506.2C516 505.4 515.1 504.6 514.3 503.8C515.6 504.1 516.9 504.4 518.2 504.7C519 505.5 519.8 506.4 520.6 507.2C519.4 506.8 518.1 506.5 516.8 506.2ZM522.8 509.2C523.5 510 524.3 510.7 525.1 511.5C523.9 511.2 522.7 510.9 521.5 510.6C520.7 509.9 519.9 509.1 519.1 508.4C520.4 508.6 521.6 508.9 522.8 509.2ZM527.4 513.6C528.1 514.3 528.8 515 529.6 515.6C528.5 515.3 527.4 515 526.3 514.7C525.5 514 524.8 513.4 524 512.7C525.1 513.1 526.3 513.4 527.4 513.6ZM525.5 506.5C526.2 507.3 526.9 508 527.7 508.8C526.3 508.5 525 508.2 523.6 507.9C522.7 507.1 521.9 506.2 521 505.3C522.4 505.6 523.7 505.9 525.1 506.1L525.5 506.5ZM520.6 501.3C521.5 502.2 522.4 503.2 523.3 504.1C521.9 503.8 520.5 503.5 519.1 503.2C518.2 502.3 517.4 501.4 516.5 500.5C517.9 500.8 519.2 501.1 520.6 501.3ZM515.9 496.4C516.9 497.4 517.9 498.4 518.8 499.4C517.4 499.1 516 498.9 514.6 498.6L511.8 495.7C513.2 495.9 514.5 496.2 515.9 496.4ZM510.9 491.3C512 492.4 513 493.4 514.1 494.5C512.8 494.3 511.5 494 510.2 493.8L507.2 490.7C508.4 490.9 509.6 491.1 510.9 491.3ZM505.6 486.1C506.7 487.2 507.9 488.3 509 489.5C507.8 489.3 506.5 489.1 505.3 488.9C504.2 487.8 503.2 486.7 502.1 485.6C503.3 485.8 504.4 485.9 505.6 486.1ZM500.1 480.8C501.3 481.9 502.5 483.1 503.7 484.3C502.5 484.1 501.4 484 500.2 483.8C499 482.6 497.9 481.5 496.8 480.4C497.9 480.5 499 480.7 500.1 480.8ZM498.2 479C497.1 478.9 496.1 478.7 495 478.6C493.8 477.4 492.5 476.2 491.3 475L494.3 475.3C495.6 476.6 496.9 477.8 498.2 479ZM492.4 473.6L489.5 473.3C488.2 472.1 486.9 470.8 485.6 469.6L488.3 469.9C489.6 471.1 491 472.3 492.4 473.6ZM486.3 468.1L483.7 467.8C482.3 466.5 480.9 465.2 479.5 464L481.8 464.2C483.3 465.5 484.8 466.8 486.3 468.1ZM475.1 458.6C476.7 459.9 478.3 461.2 479.8 462.6L477.6 462.4C476.1 461.1 474.6 459.8 473.2 458.5L475.1 458.6ZM467.9 452.8C469.6 454.1 471.3 455.5 473 456.8L471.2 456.6C469.6 455.2 468 453.9 466.5 452.6L467.9 452.8ZM459.3 446.9L460.1 447C461.9 448.3 463.8 449.7 465.6 451.1L464.3 451C462.7 449.6 461 448.3 459.3 446.9ZM457.7 445.3H457.1C455.1 443.8 453.2 442.3 451.2 440.9C453.4 442.3 455.5 443.8 457.7 445.3ZM454.3 445H453C448.5 441.4 444.2 438 439.9 434.8C444.6 437.9 449.4 441.3 454.3 445ZM450.3 444.7L448.5 444.6C441.7 438.8 435 433.5 428.6 428.7C435.5 433.4 442.8 438.7 450.3 444.7ZM445.8 444.3L443.6 444.1C434.5 436 425.7 428.8 417.3 422.6C426.3 428.7 435.8 435.9 445.8 444.3ZM411.5 420.4C420.9 427 430.7 434.8 440.9 443.8L438.3 443.5C428.7 434.7 419.5 426.9 410.6 420.1L411.5 420.4ZM407.1 417.3L406.9 417.2L405.9 416.4L407.1 417.3ZM406.2 418.7C415.6 425.7 425.4 433.9 435.7 443.2L432.8 442.9C423.1 433.7 413.8 425.5 404.8 418.4C405.3 418.5 405.8 418.6 406.2 418.7ZM400.2 414.3C401.1 414.9 401.9 415.5 402.8 416.1L401.8 415.9C401 415.3 400.2 414.6 399.3 414L400.2 414.3ZM401.1 417.4C410.4 424.7 420.1 433 430.2 442.5C429.1 442.4 428.1 442.2 427 442.1C417.4 432.7 408.2 424.4 399.3 417C399.9 417.1 400.5 417.3 401.1 417.4ZM395.7 411.2L395.5 411.1L394.5 410.3L395.7 411.2ZM394.9 412.6C396 413.4 397.1 414.3 398.2 415.1C397.7 415 397.2 414.9 396.7 414.8C395.6 413.9 394.5 413 393.5 412.2C393.9 412.4 394.4 412.5 394.9 412.6ZM388.8 408.2C389.7 408.8 390.5 409.4 391.4 410L390.4 409.8C389.6 409.2 388.8 408.5 387.9 407.9L388.8 408.2ZM389.8 411.3C391.1 412.3 392.3 413.3 393.6 414.3C393 414.2 392.3 414.1 391.7 414C390.4 412.9 389.2 411.9 387.9 410.8C388.5 411 389.2 411.2 389.8 411.3ZM384.4 405.2L384.2 405.1L383.2 404.3L384.4 405.2ZM383.6 406.6C384.7 407.4 385.8 408.3 386.9 409.1C386.4 409 385.9 408.9 385.4 408.8C384.3 407.9 383.2 407 382.2 406.2C382.6 406.3 383.1 406.4 383.6 406.6ZM377.5 402.2C378.3 402.8 379.2 403.4 380 404L379 403.8C378.2 403.2 377.4 402.5 376.5 401.9L377.5 402.2ZM378.4 405.2C379.7 406.2 380.9 407.2 382.2 408.2C381.6 408.1 380.9 408 380.3 407.9C379 406.8 377.8 405.8 376.5 404.7C377.2 405 377.8 405.1 378.4 405.2ZM373.1 399.1L372.9 399L371.9 398.2L373.1 399.1ZM372.2 400.5C373.3 401.3 374.4 402.2 375.5 403C375 402.9 374.5 402.8 374 402.7C372.9 401.8 371.8 400.9 370.8 400.1C371.3 400.2 371.8 400.4 372.2 400.5ZM366.1 396.1C367 396.7 367.8 397.3 368.7 397.9L367.7 397.7C366.9 397.1 366.1 396.4 365.2 395.8L366.1 396.1ZM367.1 399.2C368.4 400.2 369.6 401.2 370.9 402.2C370.3 402.1 369.6 402 369 401.9C367.7 400.8 366.5 399.8 365.2 398.7C365.9 398.9 366.5 399 367.1 399.2ZM361.7 393L361.5 392.9L360.5 392.2L361.7 393ZM360.9 394.4C362 395.2 363.1 396.1 364.2 396.9C363.7 396.8 363.2 396.7 362.7 396.6C361.6 395.7 360.5 394.8 359.5 394C359.9 394.2 360.4 394.3 360.9 394.4ZM354.8 390C355.7 390.6 356.5 391.2 357.4 391.8L356.4 391.6C355.6 391 354.8 390.3 353.9 389.7L354.8 390ZM355.7 393.1C357 394.1 358.3 395.1 359.5 396.1C358.9 396 358.2 395.9 357.6 395.8C356.3 394.7 355.1 393.6 353.8 392.6C354.5 392.8 355.1 392.9 355.7 393.1ZM350.4 386.9L350.2 386.8L349.2 386.1L350.4 386.9ZM349.5 388.3C350.6 389.1 351.7 390 352.8 390.8C352.3 390.7 351.8 390.6 351.3 390.5C350.2 389.6 349.1 388.7 348.1 387.9C348.6 388.1 349 388.2 349.5 388.3ZM343.5 383.9C344.4 384.5 345.2 385.1 346.1 385.7L345.1 385.5C344.3 384.9 343.5 384.2 342.6 383.6L343.5 383.9ZM344.4 387C345.7 388 346.9 389 348.2 390C347.6 389.9 346.9 389.8 346.3 389.7C345 388.6 343.8 387.6 342.5 386.5C343.2 386.7 343.8 386.9 344.4 387ZM339 380.9L338.8 380.8L337.8 380.1L339 380.9ZM338.2 382.3C339.3 383.1 340.4 384 341.5 384.8C341 384.7 340.5 384.6 340 384.5C338.9 383.6 337.8 382.7 336.8 381.9C337.2 382 337.7 382.1 338.2 382.3ZM332.1 377.9C333 378.5 333.8 379.1 334.7 379.7L333.7 379.5C332.9 378.9 332.1 378.2 331.2 377.6L332.1 377.9ZM333 380.9C334.3 381.9 335.6 382.9 336.8 384C336.2 383.9 335.5 383.8 334.9 383.7C333.6 382.6 332.4 381.5 331.1 380.5C331.8 380.7 332.4 380.8 333 380.9ZM327.7 374.8L327.5 374.7L326.5 374L327.7 374.8ZM326.9 376.2C328 377 329.1 377.9 330.2 378.7C329.7 378.6 329.2 378.5 328.7 378.4C327.6 377.5 326.5 376.6 325.5 375.8C325.9 375.9 326.4 376 326.9 376.2ZM320.8 371.8C321.7 372.4 322.5 373 323.4 373.6L322.4 373.4C321.6 372.8 320.8 372.1 319.9 371.5L320.8 371.8ZM321.7 374.9C323 375.9 324.2 376.9 325.5 377.9C324.9 377.8 324.2 377.7 323.6 377.6C322.3 376.5 321.1 375.5 319.8 374.4C320.5 374.6 321.1 374.7 321.7 374.9ZM316.4 368.7L316.2 368.6L315.2 367.9L316.4 368.7ZM315.5 370.1C316.6 370.9 317.7 371.8 318.8 372.6C318.3 372.5 317.8 372.4 317.3 372.3C316.2 371.4 315.1 370.5 314.1 369.7C314.6 369.9 315 370 315.5 370.1ZM309.5 365.7C310.4 366.3 311.2 366.9 312.1 367.5L311.1 367.3C310.3 366.7 309.5 366 308.6 365.4L309.5 365.7ZM310.4 368.8C311.7 369.8 312.9 370.8 314.2 371.8C313.6 371.7 312.9 371.6 312.3 371.5C311 370.4 309.8 369.4 308.5 368.3C309.1 368.5 309.8 368.6 310.4 368.8ZM305 362.6L304.8 362.5L303.8 361.7L305 362.6ZM304.2 364C305.3 364.8 306.4 365.7 307.5 366.5C307 366.4 306.5 366.3 306 366.2C304.9 365.3 303.8 364.4 302.8 363.6C303.2 363.8 303.7 363.9 304.2 364ZM298.1 359.6C299 360.2 299.8 360.8 300.7 361.4L299.7 361.2C298.9 360.6 298.1 359.9 297.2 359.3L298.1 359.6ZM299 362.7C300.3 363.7 301.5 364.7 302.8 365.7C302.2 365.6 301.5 365.5 300.9 365.4C299.6 364.3 298.4 363.3 297.1 362.2C297.8 362.4 298.4 362.6 299 362.7ZM293.6 356.6L293.4 356.5L292.4 355.8L293.6 356.6ZM292.8 358C293.9 358.8 295 359.6 296.1 360.5C295.6 360.4 295.1 360.3 294.6 360.2C293.5 359.3 292.4 358.5 291.4 357.6C291.9 357.7 292.4 357.8 292.8 358ZM286.7 353.6C287.6 354.2 288.5 354.8 289.3 355.4H289.2L288.2 355.2C287.4 354.6 286.6 353.9 285.7 353.3L286.7 353.6ZM282.3 350.5L282.1 350.4L281.1 349.6L282.3 350.5ZM281.4 351.9C282.6 352.7 283.7 353.6 284.8 354.4H284.7C284.2 354.3 283.7 354.2 283.2 354.1C282.1 353.2 281 352.3 280 351.5C280.5 351.6 280.9 351.7 281.4 351.9ZM275.4 347.5C276.3 348.1 277.2 348.7 278 349.3L277 349.1C276.2 348.5 275.4 347.8 274.5 347.2L275.4 347.5ZM276.3 350.6C277.6 351.6 278.9 352.6 280.2 353.6H280.1C279.5 353.5 278.8 353.4 278.2 353.3C276.9 352.2 275.7 351.2 274.4 350.1C275.1 350.3 275.7 350.4 276.3 350.6ZM271 344.4L270.8 344.3L269.8 343.5L271 344.4ZM270.1 345.8C271.2 346.6 272.3 347.5 273.5 348.3C273 348.2 272.5 348.1 272 348C270.9 347.1 269.8 346.2 268.8 345.4C269.2 345.5 269.6 345.7 270.1 345.8ZM264.1 341.4C265 342 265.8 342.6 266.7 343.2L265.7 343C264.9 342.4 264.1 341.7 263.2 341.1L264.1 341.4ZM265 344.5C266.3 345.5 267.6 346.5 268.9 347.5C268.3 347.4 267.6 347.3 267 347.2C265.7 346.1 264.5 345 263.2 344C263.8 344.2 264.4 344.3 265 344.5ZM259.7 338.4L259.5 338.3L258.5 337.5L259.7 338.4ZM258.8 339.7C259.9 340.5 261 341.3 262.1 342.2C261.6 342.1 261.1 342 260.6 341.9C259.5 341 258.4 340.1 257.4 339.3C257.9 339.5 258.3 339.6 258.8 339.7ZM252.8 335.3C253.7 335.9 254.5 336.5 255.4 337.1L254.4 336.9C253.6 336.3 252.8 335.6 251.9 335L252.8 335.3ZM253.7 338.4C255 339.4 256.2 340.4 257.5 341.4C256.9 341.3 256.2 341.2 255.6 341.1C254.3 340 253.1 339 251.8 337.9C252.4 338.1 253.1 338.3 253.7 338.4ZM248.3 332.3L248.1 332.2L247.1 331.5L248.3 332.3ZM247.5 333.7C248.6 334.5 249.7 335.3 250.8 336.2C250.3 336.1 249.8 336 249.3 335.9C248.2 335 247.1 334.1 246.1 333.3C246.5 333.4 247 333.5 247.5 333.7ZM241.4 329.3C242.3 329.9 243.1 330.5 244 331.1L243 330.9C242.2 330.3 241.4 329.6 240.5 329L241.4 329.3ZM242.4 332.3C243.7 333.3 244.9 334.3 246.2 335.3C245.6 335.2 244.9 335.1 244.3 335C243 333.9 241.8 332.8 240.5 331.8C241.1 332.1 241.7 332.2 242.4 332.3ZM237 326.2L236.8 326.1L235.8 325.3L237 326.2ZM236.1 327.6C237.2 328.4 238.3 329.3 239.4 330.1C238.9 330 238.4 329.9 237.9 329.8C236.8 328.9 235.7 328 234.7 327.2C235.2 327.3 235.7 327.5 236.1 327.6ZM230.1 323.2C231 323.8 231.8 324.4 232.7 325L231.7 324.8C230.9 324.2 230.1 323.5 229.2 322.9L230.1 323.2ZM231 326.3C232.3 327.3 233.5 328.3 234.8 329.3C234.2 329.2 233.5 329.1 232.9 329C231.6 327.9 230.4 326.9 229.1 325.8C229.8 326 230.4 326.1 231 326.3ZM225.7 320.1L225.5 320L224.5 319.3L225.7 320.1ZM224.8 321.5C225.9 322.3 227 323.2 228.1 324C227.6 323.9 227.1 323.8 226.6 323.7C225.5 322.8 224.4 321.9 223.4 321.1C223.8 321.2 224.3 321.4 224.8 321.5ZM218.7 317.1C219.6 317.7 220.4 318.3 221.3 318.9L220.3 318.7C219.5 318.1 218.7 317.4 217.8 316.8L218.7 317.1ZM219.7 320.2C221 321.2 222.3 322.2 223.5 323.2C222.9 323.1 222.2 323 221.6 322.9C220.3 321.8 219.1 320.7 217.8 319.7C218.4 319.9 219 320 219.7 320.2ZM214.3 314L214.1 313.9L213.1 313.2L214.3 314ZM213.5 315.4C214.6 316.2 215.7 317.1 216.8 317.9C216.3 317.8 215.8 317.7 215.3 317.6C214.2 316.7 213.1 315.8 212.1 315C212.5 315.2 213 315.3 213.5 315.4ZM207.4 311C208.3 311.6 209.1 312.2 210 312.8L209 312.6C208.2 312 207.4 311.3 206.5 310.7L207.4 311ZM208.3 314.1C209.6 315.1 210.8 316.1 212.1 317.1C211.5 317 210.8 316.9 210.2 316.8C208.9 315.7 207.7 314.7 206.4 313.6C207.1 313.8 207.7 314 208.3 314.1ZM203 308L202.8 307.9L201.8 307.2L203 308ZM202.1 309.3C203.2 310.1 204.3 311 205.4 311.8C204.9 311.7 204.4 311.6 203.9 311.5C202.8 310.6 201.7 309.7 200.7 308.9C201.2 309.1 201.6 309.2 202.1 309.3ZM196.1 304.9C196.9 305.5 197.8 306.1 198.6 306.7L197.6 306.5C196.8 305.9 196 305.2 195.1 304.6L196.1 304.9ZM197 308C198.3 309 199.5 310 200.8 311C200.2 310.9 199.5 310.8 198.9 310.7C197.6 309.6 196.4 308.6 195.1 307.5C195.7 307.7 196.4 307.9 197 308ZM191.6 301.9L191.4 301.8L190.4 301.1L191.6 301.9ZM190.8 303.3C191.9 304.1 193 305 194.1 305.8C193.6 305.7 193.1 305.6 192.6 305.5C191.5 304.6 190.4 303.7 189.4 302.9C189.8 303 190.3 303.1 190.8 303.3ZM184.7 298.9C185.5 299.5 186.4 300.1 187.3 300.7L186.3 300.5L183.8 298.6L184.7 298.9ZM185.7 301.9C187 302.9 188.2 303.9 189.5 304.9C188.9 304.8 188.2 304.7 187.6 304.6C186.3 303.5 185.1 302.5 183.8 301.4C184.4 301.7 185 301.8 185.7 301.9ZM180.3 295.8L180.1 295.7L179.1 295L180.3 295.8ZM179.5 297.2C180.6 298 181.7 298.9 182.8 299.7C182.3 299.6 181.8 299.5 181.3 299.4C180.2 298.5 179.1 297.7 178.1 296.8C178.5 296.9 179 297.1 179.5 297.2ZM173.4 292.8C174.2 293.4 175.1 294 176 294.6L175 294.4L172.5 292.5L173.4 292.8ZM169 289.7L168.8 289.6L167.8 288.8L169 289.7ZM163.6 288.3C162.8 287.7 162 287 161.1 286.4L162 286.7C162.8 287.3 163.7 287.9 164.6 288.5L163.6 288.3ZM169.9 293.3C168.8 292.4 167.7 291.5 166.7 290.7C167.2 290.8 167.7 291 168.1 291.1C169.2 291.9 170.3 292.8 171.4 293.6C170.9 293.5 170.4 293.4 169.9 293.3ZM176.2 298.7C174.9 297.6 173.7 296.5 172.4 295.5C173 295.6 173.6 295.8 174.3 295.9C175.6 296.9 176.8 297.9 178.1 298.9C177.5 298.8 176.9 298.7 176.2 298.7ZM178.5 300.6C179.2 300.7 179.9 300.8 180.6 301C182 302.1 183.4 303.3 184.8 304.5C184.1 304.4 183.4 304.4 182.7 304.3C181.3 303 179.9 301.8 178.5 300.6ZM184.6 306C185.4 306.1 186.2 306.1 186.9 306.2C188.4 307.5 189.9 308.8 191.5 310.2C190.7 310.2 189.9 310.2 189.2 310.2C187.7 308.8 186.2 307.4 184.6 306ZM191 311.8C191.8 311.8 192.6 311.8 193.5 311.9C195.1 313.3 196.7 314.8 198.4 316.3C197.6 316.3 196.8 316.4 196 316.4C194.2 314.9 192.6 313.4 191 311.8ZM197.5 318C198.3 318 199.2 317.9 200.1 317.9C201.8 319.5 203.5 321.1 205.2 322.7C204.4 322.8 203.5 322.9 202.7 323C200.9 321.3 199.2 319.6 197.5 318ZM204.1 324.4C205 324.3 205.8 324.2 206.7 324.2C208.5 325.9 210.2 327.6 212 329.4C211.1 329.6 210.3 329.7 209.4 329.9C207.6 328 205.8 326.2 204.1 324.4ZM210.8 331.2C211.7 331 212.6 330.9 213.5 330.8C215.3 332.6 217.2 334.5 219 336.3C218.1 336.5 217.2 336.7 216.4 337C214.5 335 212.6 333.1 210.8 331.2ZM220.5 341.4C219.5 340.3 218.5 339.3 217.5 338.3C218.4 338.1 219.3 337.9 220.2 337.7C222.1 339.6 224 341.6 225.9 343.6C225 343.9 224.2 344.2 223.3 344.5C222.4 343.4 221.5 342.4 220.5 341.4ZM230.9 352C228.8 349.9 226.7 347.8 224.6 345.7C225.5 345.4 226.3 345.1 227.2 344.9C228.4 346.1 229.5 347.3 230.7 348.6C231.5 349.5 232.3 350.3 233.1 351.2C232.4 351.3 231.7 351.6 230.9 352ZM239 359.5C236.7 357.4 234.4 355.3 232.2 353.2C232.9 352.9 233.6 352.6 234.4 352.4C236.5 354.6 238.6 356.7 240.8 358.8C240.1 359 239.6 359.2 239 359.5ZM247.6 367C245.1 364.9 242.7 362.8 240.3 360.7C240.9 360.4 241.4 360.2 242 359.9C244.3 362.1 246.6 364.2 248.9 366.3C248.4 366.6 248 366.8 247.6 367ZM256.7 374.3C254.1 372.3 251.5 370.2 248.9 368C249.3 367.8 249.7 367.6 250.1 367.4C252.5 369.6 255 371.7 257.5 373.8L256.7 374.3ZM266.3 381.5C263.5 379.5 260.8 377.5 258 375.4L258.7 375C261.3 377.2 263.9 379.3 266.5 381.3L266.3 381.5ZM273.4 386.4C271.5 385.1 269.6 383.8 267.7 382.5L267.9 382.3C269.8 383.7 271.6 385.1 273.4 386.4ZM277.7 387.5C274.9 385.5 272.2 383.5 269.4 381.4L270.1 381C272.7 383.2 275.3 385.3 278 387.3L277.7 387.5ZM279.1 388.5L279.3 388.3C281.1 389.7 282.9 391 284.7 392.4C282.9 391.2 281 389.9 279.1 388.5ZM289.3 393.4L289 393.6C286.2 391.6 283.5 389.6 280.7 387.5L281.4 387.1C284.1 389.3 286.7 391.4 289.3 393.4ZM290.4 394.6L290.6 394.4C292.4 395.8 294.2 397.1 296 398.5C294.2 397.3 292.3 395.9 290.4 394.6ZM300.7 399.5L300.4 399.7C297.6 397.7 294.9 395.7 292.1 393.6L292.8 393.2C295.4 395.4 298 397.5 300.7 399.5ZM301.8 400.7L302 400.5C303.8 401.9 305.6 403.2 307.4 404.6C305.5 403.3 303.6 402 301.8 400.7ZM311.7 405.8C308.9 403.8 306.2 401.8 303.4 399.7L304.1 399.3C306.7 401.5 309.3 403.6 312 405.6L311.7 405.8ZM313.1 406.8L313.3 406.6C315.1 408 316.9 409.3 318.7 410.7C316.9 409.4 315 408.1 313.1 406.8ZM323 411.8C320.2 409.8 317.5 407.8 314.7 405.7L315.4 405.3C318 407.5 320.6 409.6 323.3 411.6L323 411.8ZM329.6 416.4C327.8 415.2 326.1 414 324.4 412.8L324.6 412.6C326.4 414 328 415.2 329.6 416.4ZM334.4 417.9C331.6 415.9 328.9 413.9 326.1 411.8L326.8 411.4C329.4 413.5 332 415.6 334.6 417.7L334.4 417.9ZM335.8 418.9L336 418.7L336.7 419.2L335.8 418.9ZM336.1 416.9C333.5 414.9 330.9 412.8 328.3 410.6C328.7 410.4 329.1 410.2 329.5 410C331.9 412.2 334.4 414.3 336.9 416.4L336.1 416.9ZM343.6 421.9L342 421.3C340.5 420.2 339 419.1 337.5 417.9L338.2 417.5C340 419 341.8 420.4 343.6 421.9ZM347.1 425L347.3 424.9H347.4L348 425.3L347.1 425ZM347.5 422.9C344.9 420.9 342.3 418.8 339.7 416.7C340.1 416.5 340.5 416.3 340.9 416.1C343.3 418.3 345.8 420.4 348.3 422.5L347.5 422.9ZM349.1 423.8L349.6 423.5L350.4 424.2L349.1 423.8ZM349.7 421.7C347.2 419.6 344.8 417.5 342.4 415.4C343 415.1 343.5 414.9 344.1 414.6C346.4 416.8 348.7 419 351 421.1C350.5 421.2 350.1 421.5 349.7 421.7ZM353.3 427.3L352.2 426.5L353.8 427L354.9 427.9L353.3 427.3ZM354.6 425.7C353.4 424.7 352.2 423.8 351 422.8C351.4 422.6 351.8 422.4 352.2 422.2C353.8 423.7 355.5 425.1 357.2 426.5L354.6 425.7ZM358.4 431L357.8 430.6L358.7 430.9L359.3 431.3L358.4 431ZM359.6 429.6L358.1 428.4L360.2 429.1L361.7 430.4L359.6 429.6ZM361 427.7C358.5 425.6 356.1 423.5 353.7 421.4C354.2 421.1 354.8 420.9 355.4 420.6C358.2 423.3 361.1 426 364 428.6C363 428.4 362 428 361 427.7ZM364.6 433.4L363.5 432.6L365.1 433.1L366.2 434L364.6 433.4ZM365.9 431.8C365.3 431.3 364.7 430.8 364.1 430.3C365 430.6 365.8 430.8 366.7 431.1L368.5 432.6L365.9 431.8ZM369.8 437.1L369.2 436.7L370.1 437L370.7 437.5L369.8 437.1ZM370.9 435.7L369.4 434.5L371.5 435.2L373 436.5L370.9 435.7ZM372.3 433.8L370.3 432.1C371.3 432.4 372.3 432.7 373.3 432.9C374 433.5 374.6 434.1 375.3 434.7C374.3 434.4 373.3 434.1 372.3 433.8ZM376 439.5L374.9 438.7L376.5 439.2L377.6 440.1L376 439.5ZM377.2 437.8C376.6 437.3 376 436.8 375.4 436.3C376.3 436.6 377.2 436.8 378 437.1L379.8 438.6L377.2 437.8ZM381.1 443.2L380.5 442.8L381.4 443.1L382 443.5L381.1 443.2ZM382.2 441.8L380.7 440.6C381.4 440.8 382.1 441 382.9 441.3L384.4 442.6L382.2 441.8ZM383.7 439.9C383 439.3 382.3 438.7 381.7 438.2C382.7 438.5 383.7 438.8 384.7 439C385.4 439.6 386 440.2 386.7 440.8C385.7 440.5 384.7 440.2 383.7 439.9ZM387.3 445.6L386.2 444.8L387.8 445.3L388.9 446.2L387.3 445.6ZM388.6 443.9C388 443.4 387.4 442.9 386.8 442.4L389.4 443.2L391.2 444.7L388.6 443.9ZM392.4 449.3L391.8 448.9L392.7 449.2L393.3 449.6L392.4 449.3ZM393.6 447.8L392.1 446.6L394.2 447.3L395.7 448.6L393.6 447.8ZM395 446C394.3 445.4 393.6 444.8 393 444.3C394 444.6 395 444.9 396 445.1C396.7 445.7 397.3 446.3 398 446.9C397 446.6 396 446.3 395 446ZM398.6 451.6L397.5 450.8L399.1 451.3L400.2 452.2L398.6 451.6ZM399.9 450C399.3 449.5 398.7 449 398.1 448.5C399 448.8 399.9 449 400.7 449.3L402.5 450.8C401.6 450.6 400.8 450.3 399.9 450ZM403.8 455.3L403.2 454.9L404.1 455.2L404.7 455.6L403.8 455.3ZM404.9 453.9L403.4 452.7C404.1 452.9 404.8 453.1 405.6 453.4L407.1 454.7L404.9 453.9ZM406.3 452C405.6 451.4 404.9 450.8 404.3 450.3C405.3 450.6 406.3 450.9 407.4 451.1C408.1 451.7 408.7 452.3 409.4 452.9C408.3 452.7 407.3 452.3 406.3 452ZM410 457.7L408.9 456.9L410.5 457.4L411.6 458.3L410 457.7ZM411.2 456.1C410.6 455.6 410 455.1 409.4 454.6L412 455.4L413.8 456.9L411.2 456.1ZM415.1 461.4L414.5 461L415.4 461.3L416 461.7L415.1 461.4ZM416.3 460L414.8 458.8L417 459.5L418.5 460.7L416.3 460ZM417.6 458.1C416.9 457.5 416.2 456.9 415.6 456.4C416.7 456.7 417.7 457 418.7 457.2C419.4 457.8 420 458.4 420.7 459C419.6 458.7 418.6 458.4 417.6 458.1ZM421.3 463.8L420.2 463L421.8 463.5L422.9 464.4L421.3 463.8ZM422.5 462.1C421.9 461.6 421.3 461.1 420.7 460.6C421.6 460.9 422.5 461.1 423.4 461.4L425.2 462.9L422.5 462.1ZM426.5 467.5L425.9 467.1L426.8 467.4L427.4 467.8L426.5 467.5ZM427.6 466.1L426.1 464.9L428.2 465.6L429.7 466.9L427.6 466.1ZM428.9 464.2C428.2 463.6 427.5 463 426.9 462.5C428 462.8 429 463.1 430 463.3H429.9C430.6 463.9 431.2 464.5 431.9 465.1C430.9 464.8 429.9 464.5 428.9 464.2ZM432.6 469.9L431.5 469.1L433.1 469.6L434.2 470.5L432.6 469.9ZM433.9 468.2C433.3 467.7 432.7 467.2 432.1 466.7C433.1 467 433.9 467.2 434.8 467.5H434.7L436.5 469L433.9 468.2ZM437.8 473.6L437.2 473.2L438.1 473.5L438.7 473.9L437.8 473.6ZM438.9 472.1L437.4 470.9L439.5 471.6L441 472.8L438.9 472.1ZM440.4 470.3C439.7 469.7 439 469.1 438.4 468.6C439.4 468.9 440.4 469.2 441.4 469.4C442.1 470 442.7 470.6 443.4 471.2C442.3 470.9 441.3 470.6 440.4 470.3ZM443.9 475.9L442.8 475.1L444.4 475.6L445.5 476.5L443.9 475.9ZM445.3 474.3C444.7 473.8 444.1 473.3 443.5 472.8L446.1 473.6L447.9 475.1C447 474.9 446.1 474.6 445.3 474.3ZM449.1 479.7L448.5 479.3L449.4 479.6L450 480L449.1 479.7ZM450.3 478.2L448.8 477L451 477.7L452.5 478.9L450.3 478.2ZM451.7 476.3C451 475.7 450.3 475.1 449.7 474.6C450.7 474.9 451.7 475.2 452.7 475.4C453.4 476 454 476.6 454.7 477.2C453.7 477 452.7 476.6 451.7 476.3ZM455.3 482L454.2 481.2L455.8 481.7L456.9 482.6L455.3 482ZM456.6 480.4C456 479.9 455.4 479.4 454.8 478.9C455.7 479.2 456.6 479.4 457.4 479.7L459.2 481.2L456.6 480.4ZM460.5 485.7L459.9 485.3L460.8 485.6L461.4 486L460.5 485.7ZM461.6 484.3L460.1 483.1L462.2 483.8L463.7 485.1L461.6 484.3ZM463 482.4C462.3 481.8 461.6 481.2 461 480.7C462 481 463 481.3 464 481.6C464.7 482.2 465.3 482.8 466 483.4C465 483 464 482.7 463 482.4ZM466.7 488.1L465.6 487.3L467.2 487.8L468.3 488.7L466.7 488.1ZM467.9 486.4C467.3 485.9 466.7 485.4 466.1 484.9C467 485.2 467.9 485.4 468.7 485.7L470.5 487.2L467.9 486.4ZM471.8 491.8L471.2 491.4L472.1 491.7L472.7 492.1L471.8 491.8ZM473 490.4L471.5 489.2L473.6 489.9L475.1 491.2L473 490.4ZM474.4 488.5C473.7 487.9 473 487.3 472.4 486.8C473.4 487.1 474.4 487.4 475.4 487.7C476.1 488.3 476.7 488.9 477.4 489.5C476.4 489.1 475.4 488.8 474.4 488.5ZM478 494.2L476.9 493.4L478.5 493.9L479.6 494.8L478 494.2ZM479.3 492.5C478.7 492 478.1 491.5 477.5 491C478.4 491.3 479.3 491.5 480.1 491.8L481.9 493.3C481 493.1 480.1 492.8 479.3 492.5ZM483.2 497.9L482.6 497.5L483.5 497.8L484.1 498.2L483.2 497.9ZM484.3 496.4L482.8 495.2C483.5 495.4 484.2 495.7 485 495.9L486.5 497.1L484.3 496.4ZM485.7 494.5C485 493.9 484.3 493.4 483.7 492.8C484.7 493.1 485.7 493.4 486.7 493.7C487.4 494.3 488 494.9 488.7 495.5C487.7 495.2 486.7 494.9 485.7 494.5ZM489.4 500.2L488.3 499.4L489.9 499.9L491 500.8L489.4 500.2ZM490.6 498.6C490 498.1 489.4 497.6 488.8 497.1L491.4 497.9L493.2 499.4C492.3 499.1 491.5 498.9 490.6 498.6ZM494.5 504L493.9 503.6L494.8 503.9L495.4 504.3L494.5 504ZM495.6 502.5L494.1 501.3L496.2 502L497.7 503.3L495.6 502.5ZM497.1 500.6C496.4 500 495.7 499.4 495.1 498.9C496.1 499.2 497.1 499.5 498.1 499.7C498.8 500.3 499.4 500.9 500.1 501.5C499.1 501.3 498.1 501 497.1 500.6ZM500.7 506.3L499.6 505.5L501.2 506L502.3 506.9L500.7 506.3ZM502 504.7C501.4 504.2 500.8 503.7 500.2 503.2L502.8 504L504.6 505.5C503.7 505.2 502.8 505 502 504.7ZM505.8 510L505.2 509.6L506.1 509.9L506.7 510.3L505.8 510ZM507 508.6L505.5 507.4L507.6 508.1L509.1 509.4L507 508.6ZM508.4 506.7C507.7 506.1 507 505.5 506.4 505C507.4 505.3 508.4 505.6 509.5 505.9C510.2 506.5 510.8 507.1 511.5 507.7C510.4 507.3 509.4 507 508.4 506.7ZM512 512.4L510.9 511.6L512.5 512.1L513.6 513L512 512.4ZM513.3 510.7C512.7 510.2 512.1 509.7 511.5 509.2C512.4 509.5 513.3 509.7 514.1 510L515.9 511.5L513.3 510.7ZM517.2 516.1L516.6 515.7L517.5 516L518.1 516.4L517.2 516.1ZM518.3 514.7L516.8 513.5L518.9 514.2L520.4 515.4L518.3 514.7ZM519.8 512.8C519.1 512.2 518.4 511.6 517.8 511.1C518.8 511.4 519.8 511.7 520.8 511.9C521.5 512.5 522.1 513.1 522.8 513.7C521.7 513.4 520.7 513.1 519.8 512.8ZM523.4 518.5L522.3 517.7L523.9 518.2L525 519.1L523.4 518.5ZM524.7 516.8C524.1 516.3 523.5 515.8 522.9 515.3C523.8 515.6 524.6 515.8 525.5 516.1L527.3 517.6C526.4 517.4 525.5 517.1 524.7 516.8ZM528.5 522.2L527.9 521.8L528.8 522.1L529.4 522.5L528.5 522.2ZM529.7 520.7L528.2 519.5L530.3 520.2L531.8 521.4L529.7 520.7ZM531.1 518.9C530.4 518.3 529.7 517.7 529.1 517.2C530.1 517.5 531.1 517.8 532.1 518C532.8 518.6 533.4 519.2 534.1 519.8C533.1 519.5 532.1 519.2 531.1 518.9ZM534.7 524.6L533.6 523.8L535.2 524.3L536.3 525.2L534.7 524.6ZM536 522.9C535.4 522.4 534.8 521.9 534.2 521.4L536.8 522.2L538.6 523.7L536 522.9ZM539.9 528.3L539.3 527.9L540.2 528.2L540.8 528.6L539.9 528.3ZM541 526.8L539.5 525.6L541.6 526.3L543.1 527.5L541 526.8ZM542.4 524.9C541.7 524.3 541 523.7 540.4 523.2C541.4 523.5 542.4 523.8 543.4 524.1C544.1 524.7 544.7 525.3 545.4 525.9C544.4 525.6 543.4 525.2 542.4 524.9ZM546.1 530.6L545 529.8L546.6 530.3L547.7 531.2L546.1 530.6ZM547.3 529C546.7 528.5 546.1 528 545.5 527.5C546.4 527.8 547.3 528 548.1 528.3L549.9 529.8L547.3 529ZM551.2 534.3L550.6 533.9L551.5 534.2L552.1 534.6L551.2 534.3ZM552.3 532.9L550.8 531.7L553 532.4L554.5 533.7L552.3 532.9ZM557.4 536.7L556.3 535.9L557.9 536.4L559 537.3L557.4 536.7ZM562.5 540.4L562 540L562.9 540.3L563.5 540.7L562.5 540.4Z" fill="#121212"/>
</g>
<defs>
<clipPath id="clip0_642_3584">
<rect width="1920" height="896" fill="white"/>
</clipPath>
</defs>
</svg>
