<svg width="64" height="64" viewBox="0 0 64 64" fill="none" xmlns="http://www.w3.org/2000/svg">
<path d="M57.7658 45.2007C49.4513 61.2952 31.2345 68.4323 17.0774 61.1417C2.9204 53.8512 -1.8159 34.8939 6.49861 18.7993C14.8131 2.70481 33.0299 -4.43225 47.1869 2.85828C61.344 10.1488 66.0803 29.1061 57.7658 45.2007Z" fill="#ED1B2F"/>
<g clip-path="url(#clip0_694_988)">
<path d="M25.4642 34.4485H16V47.1576H25.4642V34.4485Z" fill="white"/>
<path d="M48.0001 31.1829H38.5359V47.1575H48.0001V31.1829Z" fill="white"/>
<path d="M36.734 26.4441H27.2671V47.1577H36.734V26.4441Z" fill="white"/>
<path d="M43.3406 21.554L44.6809 24.2729L47.6828 24.7096L45.5131 26.8257L46.0239 29.8152L43.3406 28.4035L40.6574 29.8152L41.1682 26.8257L38.9985 24.7096L41.9977 24.2728L43.3406 21.554Z" fill="white"/>
<path d="M32.0516 16.8425L33.3932 19.5629L36.3951 19.9996L34.2254 22.1171L34.7376 25.1038L32.053 23.6935L29.3683 25.1038L29.8792 22.1171L27.7095 19.9996L30.7099 19.5629L32.0516 16.8425Z" fill="white"/>
<path d="M20.5674 24.7249L21.9076 27.4452L24.9095 27.8833L22.7412 29.998L23.252 32.9861L20.5674 31.5758L17.8828 32.9875L18.395 29.9994L16.2253 27.8846L19.2258 27.4465L20.5674 24.7249Z" fill="white"/>
</g>
<defs>
<clipPath id="clip0_694_988">
<rect width="32" height="32" fill="white" transform="translate(16 16)"/>
</clipPath>
</defs>
</svg>
