<svg width="64" height="64" viewBox="0 0 64 64" fill="none" xmlns="http://www.w3.org/2000/svg">
<path d="M57.7659 45.2007C49.4514 61.2952 31.2346 68.4323 17.0776 61.1417C2.92052 53.8512 -1.81578 34.8939 6.49873 18.7993C14.8132 2.70481 33.03 -4.43225 47.1871 2.85828C61.3441 10.1488 66.0804 29.1061 57.7659 45.2007Z" fill="#ED1B2F"/>
<g clip-path="url(#clip0_646_9442)">
<path d="M32 24.9844L35.5173 26.8337L34.8455 22.917L37.6929 20.1421L33.7588 19.5708L32 16L30.2412 19.5708L26.3071 20.1421L29.1545 22.917L28.4827 26.8337L32 24.9844Z" fill="white"/>
<path d="M43.8835 25.9456L42.1248 22.3816L40.366 25.9456L36.4338 26.5168L39.2793 29.291L38.6074 33.2085L42.1248 31.3591L45.644 33.2085L44.9702 29.291L48 26.5168L43.8835 25.9456Z" fill="white"/>
<path d="M19.0298 29.291L18.356 33.2085L21.8752 31.3591L25.3926 33.2085L24.7207 29.291L27.5662 26.5168L23.634 25.9456L21.8752 22.3816L20.1165 25.9456L16 26.5168L19.0298 29.291Z" fill="white"/>
<path d="M36.6875 33.875C36.6875 31.2905 34.5845 29.1875 32 29.1875C29.4155 29.1875 27.3125 31.2905 27.3125 33.875C27.3125 36.4595 29.4155 38.5625 32 38.5625C34.5845 38.5625 36.6875 36.4595 36.6875 33.875Z" fill="white"/>
<path d="M25.4375 45.125V48H38.5625V45.125C38.5625 41.5068 35.6182 38.5625 32 38.5625C28.3818 38.5625 25.4375 41.5068 25.4375 45.125Z" fill="white"/>
<path d="M46.0625 47C46.0625 44.4155 43.9595 42.3125 41.375 42.3125C40.8901 42.3125 40.4316 42.4077 39.9915 42.5449C40.2568 43.3633 40.4375 44.2195 40.4375 45.125V48H46.0625V47Z" fill="white"/>
<path d="M45.125 38.5625C45.125 36.4944 43.4431 34.8125 41.375 34.8125C39.3069 34.8125 37.625 36.4944 37.625 38.5625C37.625 38.6819 37.6492 38.7947 37.6602 38.9111C38.5847 39.7539 39.3303 40.7825 39.8093 41.959C40.2874 42.1804 40.8145 42.3125 41.375 42.3125C43.4431 42.3125 45.125 40.6306 45.125 38.5625Z" fill="white"/>
<path d="M26.3398 38.9111C26.3508 38.7947 26.375 38.6819 26.375 38.5625C26.375 36.4944 24.6931 34.8125 22.625 34.8125C20.5569 34.8125 18.875 36.4944 18.875 38.5625C18.875 40.6306 20.5569 42.3125 22.625 42.3125C23.1855 42.3125 23.7126 42.1804 24.1907 41.9592C24.6697 40.7825 25.4153 39.7539 26.3398 38.9111Z" fill="white"/>
<path d="M17.9375 47V48H23.5625V45.125C23.5625 44.2195 23.7432 43.3633 24.0085 42.5449C23.5684 42.4077 23.1099 42.3125 22.625 42.3125C20.0405 42.3125 17.9375 44.4155 17.9375 47Z" fill="white"/>
</g>
<defs>
<clipPath id="clip0_646_9442">
<rect width="32" height="32" fill="white" transform="translate(16 16)"/>
</clipPath>
</defs>
</svg>
