<svg width="64" height="64" viewBox="0 0 64 64" fill="none" xmlns="http://www.w3.org/2000/svg">
<path d="M57.7659 45.2007C49.4514 61.2952 31.2346 68.4323 17.0776 61.1417C2.92052 53.8512 -1.81578 34.8939 6.49873 18.7993C14.8132 2.70481 33.03 -4.43225 47.1871 2.85828C61.3441 10.1488 66.0804 29.1061 57.7659 45.2007Z" fill="#ED1B2F"/>
<path d="M23.7994 35.3853L16.5783 42.6063C15.3372 43.8416 16.2276 45.9951 17.9788 45.9876C18.508 45.9876 19.0052 45.7818 19.3799 45.4078L26.6009 38.1867C25.5225 37.4105 24.5756 36.4636 23.7994 35.3853Z" fill="white"/>
<path d="M34.5048 36.0708C29.981 36.5966 25.8113 32.8349 25.874 28.28C26.0475 19.3816 38.212 17.4995 41.1316 25.7912C42.0754 25.778 42.9935 25.9524 43.8287 26.2728C41.1162 14.192 23.7422 15.7887 23.387 28.2801C23.2915 34.0346 28.4516 38.9555 34.1939 38.5871L34.8731 36.7932C34.7369 36.5605 34.6143 36.3191 34.5048 36.0708Z" fill="white"/>
<path d="M34.5981 29.9624C35.5016 28.0792 37.1867 26.6359 39.2322 26.062C35.9695 18.6528 25.0719 23.404 28.3341 30.8507C29.3303 32.9681 31.6239 34.3563 33.967 34.2294C33.7428 32.7951 33.971 31.2542 34.5981 29.9624Z" fill="white"/>
<path d="M36.9354 39.0668C36.6903 38.8904 36.4563 38.699 36.2355 38.4939C36.0648 38.9446 34.4248 43.2743 34.4248 43.2743L36.4738 43.6296L38.2439 44.7211L39.9064 40.3315C38.8217 40.1338 37.8191 39.7037 36.9354 39.0668Z" fill="white"/>
<path d="M46.1892 38.4939C45.1853 39.4246 43.9206 40.0782 42.5183 40.3315L44.1808 44.7211L45.9509 43.6296L47.9999 43.2743L46.1892 38.4939Z" fill="white"/>
<path d="M46.6652 33.1185C46.6645 31.1756 45.6438 29.4311 44.0239 28.4482C39.3269 25.64 33.8575 30.7837 36.3795 35.6417C39.1233 40.6537 46.5494 38.8361 46.6652 33.1185ZM38.4178 33.684L39.7444 32.3573C39.9557 32.5679 40.3548 32.9677 40.5675 33.1798C41.0703 32.6771 42.1699 31.5774 42.6804 31.067C43.027 31.4143 43.6617 32.0483 44.007 32.3942C43.1644 33.2368 41.399 35.0022 40.5675 35.8337L38.4178 33.684Z" fill="white"/>
</svg>
