<svg width="64" height="64" viewBox="0 0 64 64" fill="none" xmlns="http://www.w3.org/2000/svg">
<path d="M57.7658 45.2007C49.4513 61.2952 31.2345 68.4323 17.0774 61.1417C2.9204 53.8512 -1.8159 34.8939 6.49861 18.7993C14.8131 2.70481 33.0299 -4.43225 47.1869 2.85828C61.344 10.1488 66.0803 29.1061 57.7658 45.2007Z" fill="#ED1B2F"/>
<g clip-path="url(#clip0_694_976)">
<path d="M19.3618 31.4824L20.6877 32.8083L17.3733 36.1233C16.488 37.0076 16 38.1851 16 39.4375C16 40.6899 16.488 41.8674 17.3733 42.7517C18.0327 43.4116 18.8552 43.8494 19.75 44.03V46.125H16V48H25.375V46.125H21.625V44.03C22.5198 43.8494 23.3425 43.4116 24.0017 42.7517L27.3167 39.4373L28.6426 40.7632L29.9683 39.4375L20.6875 30.1567L19.3618 31.4824Z" fill="white"/>
<path d="M47.4507 16H34.7385L38.9761 24.4746L47.4507 16Z" fill="white"/>
<path d="M23.9656 30.7834L28.2539 35.0718L30.6116 32.7141L25.5376 27.6399L23.9656 30.7834Z" fill="white"/>
<path d="M40.0342 30.7837L32.6421 16H16.5493L35.7461 35.0718L40.0342 30.7837Z" fill="white"/>
<path d="M44.25 44.03C45.1448 43.8494 45.9675 43.4116 46.6267 42.7517C47.512 41.8674 48 40.6899 48 39.4375C48 38.1851 47.512 37.0076 46.6267 36.1233L43.3123 32.8083L44.6382 31.4824L43.3125 30.1567L34.0317 39.4375L35.3574 40.7632L36.6833 39.4373L39.9983 42.7517C40.6577 43.4116 41.4802 43.8494 42.375 44.03V46.125H38.625V48H48V46.125H44.25V44.03Z" fill="white"/>
</g>
<defs>
<clipPath id="clip0_694_976">
<rect width="32" height="32" fill="white" transform="translate(16 16)"/>
</clipPath>
</defs>
</svg>
